<svg xmlns="http://www.w3.org/2000/svg" viewBox="0 0 342 371"><defs><style>.cls-1{fill:#eaca42;}.cls-2{fill:#4fbaba;}.cls-3{fill:none;stroke:#000;stroke-miterlimit:10;}.cls-4{fill:#33bc9c;}.cls-5{fill:#d844bc;}.cls-6{fill:#c64ba9;}.cls-7{fill:#419391;}</style></defs><g id="Layer_7" data-name="Layer 7"><rect class="cls-1" width="342" height="371"/></g><g id="Layer_2" data-name="Layer 2"><polygon class="cls-2" points="95.39 244 0 321.94 16.81 370.44 323.89 371 342 321.94 262.01 244 95.39 244"/><path class="cls-3" d="M358.5,647.5" transform="translate(-185 -352)"/><path class="cls-4" d="M448,622" transform="translate(-185 -352)"/><ellipse class="cls-5" cx="171" cy="291.5" rx="26" ry="11.5"/><path class="cls-5" d="M431.5,633.5c-.9-6.74-15.72-12.27-21.86-14.39-30.91-9.74-64.81-11.62-96.76-6.1-9.84,1.76-39.29,8.91-35.89,22.38,3.32,8.88,17.11,13.71,25.61,16.47,15.82,4.73,32.39,6.57,48.9,6.89a.75.75,0,0,1,0,1.5,210.1,210.1,0,0,1-33.32-2.06c-11.1-1.73-22.16-4.17-32.32-9.28-11.86-5.79-19.34-16.75-7.51-27.36,9.39-8,21.65-11.41,33.38-14.17a214.83,214.83,0,0,1,100.62,3.21c10.55,3.39,28.48,9.52,29.15,22.91-.1,6.8-9.88,6.76-10,0Z" transform="translate(-185 -352)"/></g><g id="Layer_8" data-name="Layer 8"><polygon class="cls-6" points="16.81 370.44 0 321.94 342 321.94 16.81 370.44"/></g><g id="Layer_9" data-name="Layer 9"><polygon class="cls-7" points="323.89 371 342 321.94 16.81 370.44 323.89 371"/></g><g id="Layer_4" data-name="Layer 4"><polygon class="cls-2" points="111.57 147.81 97.37 111.63 259.53 112.4 210.96 223.25 111.57 147.81"/></g><g id="Layer_3" data-name="Layer 3"><path class="cls-7" d="M405.77,563.3v4.09a8.55,8.55,0,0,1-1,4.11l-37.87,69.09A4.31,4.31,0,0,1,363,643h0a12.26,12.26,0,0,1-11.34-7.51L291.3,490.9a.37.37,0,0,1,0-.34l1.36-2a.37.37,0,0,1,.5-.1l112.33,74.4A.52.52,0,0,1,405.77,563.3Z" transform="translate(-185 -352)"/></g><g id="Layer_5" data-name="Layer 5"><path class="cls-5" d="M347.93,492.71a1.61,1.61,0,0,1,2.54.11,32.13,32.13,0,0,0,5.46,5.9c5.67,4.77,12.28,4.23,14.78,4.23,9.78,0,17.2-6.2,18.89-7.62,2.94-2.45,4.3-6.65,5.75-11,.71-2.14,1.64-5.08,1.64-5.08a80.2,80.2,0,0,0,4.11,8.46,27.43,27.43,0,0,0,4.93,6.77,21,21,0,0,0,9,5.07,18.21,18.21,0,0,0,13.14-.84c1.24-.61,6.38-3.14,8.21-8.46a34.57,34.57,0,0,0,1.64-9.31s2.86.27,6.48.38c.49,0,6.32-.27,9.49-4.62,2.82-3.86,2-8,1.28-11a8.49,8.49,0,0,0-4.44-5.94c-4.26-2.57-10.34-1.67-10.34-1.67a93.64,93.64,0,0,0,6.57-8.46c2.61-3.93,8.47-10.36,6.14-21.87.16-5.13-.85-12.62-3.16-21.18-1.28-4.74-8.11-17.12-17.76-28-11.95-13.48-26.26-18.32-39.42-22-9.42-2.63-34.59-8.39-60.78-.84-14.88,4.29-23.81,8.46-32,13.53-9,5.58-20.73,14.34-31.2,32.15-6.7,11.38-8.77,23.33-7.39,33,2.27,15.93,16.42,30.46,16.42,30.46a22.51,22.51,0,0,0-8.21,1.69c-1.65.63-4.74,2-7.1,7.06-2.76,5.94.81,10.81,1.58,12.32a13.37,13.37,0,0,0,10.28,4.62,50.75,50.75,0,0,0,10-1.16s4.18,5.61,9.86,7.62c5.39,1.9,7.76-2,12.31,0,1.71.74,2.46,1.33,5.94,4.07,7.24,5.72,9.08,6.58,10.9,8.19,9.61,8.51,12.81,33,6.16,47.8A18.19,18.19,0,0,0,328,567.24c.82,5.08,6.57,7.62,8.21,7.62.93,0,8.21,1.7,8.21-7.62,0-2.48-.44-2.68-2-6,0,0-.28-.46-2.13-5-9.87-24.31-2.88-45.26-2.88-45.26A54.46,54.46,0,0,1,347.93,492.71Z" transform="translate(-185 -352)"/><path class="cls-6" d="M477.6,482.1" transform="translate(-185 -352)"/></g></svg>