<svg xmlns="http://www.w3.org/2000/svg" xmlns:xlink="http://www.w3.org/1999/xlink" viewBox="0 0 624.01 707.31"><defs><clipPath id="clip-path" transform="translate(-408.85 -29.3)"><path d="M917.24,295.6c-1.57.92-5.11-.83-5.2-2.5-.1-2.16,5.54-4.28,9.25-5a20.75,20.75,0,0,1,10.78.58c7.39,2.54,11,9,13.66,13.86a45.84,45.84,0,0,1,5.59,21.56,46.15,46.15,0,0,1-10,15.4c-4.4,4.46-9,9.18-16.17,10-8.11.95-18.12-3.27-21.76-10.39-2.44-4.77-1.82-10.43-6.54-13.29-2.11-1.27-3.73-1.05-3.85-1.92-.35-2.35,10.89-7.87,15.59-4.24.83.64,1.39,1.58,2.5,3.47,1.94,3.27,2,4.88,2.89,6.54,2.73,5.05,10.64,5.7,11.74,5.78.83.06,8.77.49,12.9-4.43,7.24-8.62-2.87-26.92-11.36-33.88-2.43-2-7-4.94-8.66-3.66C917.88,294,918.12,295.09,917.24,295.6Z" style="fill:none"/></clipPath><clipPath id="clip-path-2" transform="translate(-408.85 -29.3)"><path d="M830.19,276.29c5.51,16.91,20.46,25.08,31.28,31,11.33,6.19,20.47,7.8,38.74,11,27.32,4.82,41,7.24,56.31.89,5.38-2.22,20.62-8.53,26.52-23.54,6-15.3-1.36-30.24-8.94-45.58-4.94-10-8.41-16.77-15.49-18.48-12.18-2.92-23.86,11.77-24.43,12.52a61.76,61.76,0,0,0-13.11-18.77c-3.92-3.83-16.63-16.22-36.36-17-22.86-.89-37.94,14.51-40.82,17.58C833.11,237.46,824,257.25,830.19,276.29Z" style="fill:none"/></clipPath><clipPath id="clip-path-3" transform="translate(-408.85 -29.3)"><path d="M981.22,299.52c-6.24,2.91-18.53-11.22-24.4-18A130.32,130.32,0,0,1,934,243.81a35.07,35.07,0,0,1,11.15-9.42c3.57-1.89,7.78-4.13,12.48-3.29,3.56.63,6.67,2.88,11.44,9.42s11.07,15.2,13.91,29.92C983.87,275.22,988,296.38,981.22,299.52Z" style="fill:none"/></clipPath><clipPath id="clip-path-4" transform="translate(-408.85 -29.3)"><path d="M839.8,210a40.7,40.7,0,0,0,11.77,4.68c6.26,1.39,11.18.89,16.6.28a84.63,84.63,0,0,0,20.29-5,74.11,74.11,0,0,0,19.71-10.5c6.51-4.93,12.32-10.6,15.22-14.51,0-2.12-1.09-5.31-2.58-8.37-.67-1.38-3.25-8.16-14.48-13.58a56,56,0,0,0-24.12-5.53,46.32,46.32,0,0,0-28.51,9.22,40.21,40.21,0,0,0-12.62,16.6,46.12,46.12,0,0,0-2.83,17.39c.1,2,.38,3.88.38,3.88A40.73,40.73,0,0,0,839.8,210Z" style="fill:none"/></clipPath><clipPath id="clip-path-5" transform="translate(-408.85 -29.3)"><path d="M914.22,292.29c12,5.19,24.11,3.78,27.11-3.14s-4.27-16.74-16.25-21.93S901,263.43,898,270.36,902.24,287.1,914.22,292.29Zm-6.89-19.46c1.63-3.3,10-2.52,18.62,1.74S940.3,285,938.67,288.28s-10,2.53-18.62-1.74S905.7,276.14,907.33,272.83Z" style="fill:none"/></clipPath><clipPath id="clip-path-6" transform="translate(-408.85 -29.3)"><path d="M906.35,277c-2.45-5.6-12.38-6.74-22.18-2.54s-15.75,12.14-13.29,17.74,12.38,6.74,22.18,2.54S908.81,282.55,906.35,277ZM888.29,290c-7.08,3.46-13.9,4.09-15.24,1.41s3.33-7.64,10.41-11.09,13.9-4.09,15.23-1.41S895.37,286.59,888.29,290Z" style="fill:none"/></clipPath><clipPath id="clip-path-7" transform="translate(-408.85 -29.3)"><path d="M863.77,248.54c-.43,2-.85,1.66-2.27,4.39s2,4.61,1,9.64a2.67,2.67,0,0,0,.71,2.77c.6.64.79,1.26,1.41,1.91.9.94.08,2.31.29,3.83.46,3.37,5.68,5.3,7.09,5.82a45.13,45.13,0,0,0,7.09,1.28c3.31.47,5,.71,5.82.56,3.26-.54,4.35-2.44,7-2,1.27.22,1.17.71,2.7,1.27,3,1.13,7.38.7,9.92-1.7,2-1.86,1.2-3.34,3.13-4.54s3.29.17,6.52-.71a12.48,12.48,0,0,0,6.1-4.11c2.19-2.61,1.46-3.91,3.4-5.53,2.46-2,4.2-.46,6.39-2.13,2-1.53,2.33-5.32,3-12.91.24-2.88.1-2.72.42-6.52.46-5.45.75-5.81.43-7.24-.8-3.58-3.61-5.84-5.53-7.37a25.23,25.23,0,0,0-7.66-4c-4.23-1.52-9-3.24-14.33-3-3.53.17-4.4,1.08-15.32,6.24-8.23,3.88-12.49,5.62-19.15,9.78-6.19,3.88-8.61,6.2-8.37,8.52C863.79,245.68,864.21,246.49,863.77,248.54Z" style="fill:none"/></clipPath></defs><g id="Person"><path d="M581.1,103.64c34.83-36.11,67.34-49.3,93.21-60.83C726.2,19.67,776.8,32.05,799.88,37.7c31,7.58,73.38,17.95,89.79,51.1,7.43,15,4.26,24,16.07,46,14.12,26.33,25.22,25.65,35,43.08,20.38,36.17-12.5,65.52-1.46,116.81,4.65,21.59,11.31,20.28,37.23,64.24,36.74,62.31,61.2,103.79,55.49,151.85-6.29,52.87-45.78,85.93-49.65,89.07-18.88,15.34-39.15,22.66-141.63,30.66-87.61,6.84-132.45,10.15-183.24,4.38-66.59-7.55-99.89-11.33-132.14-38-37.63-31.06-50.24-73.21-61.33-110.24-11-36.72,7-49.63,24.58-80,16.37-28.33,9.5-42,30.18-68.19,34.72-44.06-10.87-93.54,20.44-161.34C547.73,158.76,548.8,137.14,581.1,103.64Z" transform="translate(-408.85 -29.3)" style="fill:#631f1c"/><path d="M523.57,734.78A21.51,21.51,0,0,1,502,709.24a266.56,266.56,0,0,1,25.54-74.11c12.23-23.46,28-53.78,62.29-74,10.93-6.45,22.63-11.21,43.28-16.28,24-5.88,59.32-8.1,102.86-6.72,21.45.68,51.19.32,92.35,12.41,14.48,4.26,40,19.56,63.27,47.58,32.74,39.35,39.54,84.5,41.86,101.23.47,3.43,1,8.28,1.44,13.36a21.29,21.29,0,0,1-20.76,23.21C784.23,738.6,653.51,732.25,523.57,734.78Z" transform="translate(-408.85 -29.3)" style="fill:#bf6bbd"/><path d="M804.58,544.82a12.61,12.61,0,0,1,5.22,22.39,163.4,163.4,0,0,1-33.28,19.85c-12.83,5.7-40.77,17.72-75.93,13.15-34.32-4.47-86-40.4-75.93-50.5,6.33-6.33,22.14-8.11,31.64-10.22a96.17,96.17,0,0,1,14.49-2.19,12.62,12.62,0,0,0,11.77-12.13c.86-24.38,1.37-47.94,2.24-72.33a12.6,12.6,0,0,1,12.59-12.15h60.43a12.6,12.6,0,0,1,12.58,11.86q2.22,37.43,4.43,74.86a12.58,12.58,0,0,0,9,11.35c5.54,1.62,12.12,4.25,18.45,5.6Z" transform="translate(-408.85 -29.3)" style="fill:#9b5b2f"/><path d="M856.09,271.56a58.77,58.77,0,0,1,20.44-25.8c7.18-5.07,13.4-9.47,20.93-8.27,12.62,2,18.64,18.06,20.44,22.87,1.61,4.28,6.3,18.73-.48,34.56-1.73,4-9.8,22.88-28.23,25.31-14.17,1.87-29-6.69-36.51-21.42A56.88,56.88,0,0,1,856.09,271.56Z" transform="translate(-408.85 -29.3)" style="fill:#d18d4a"/><path d="M865.4,284.62c3-7.71,6.35-15.79,12.34-21.81s14.5-9.73,22.93-8.48a.34.34,0,0,1-.09.68c-8.06-.65-15.93,3.45-21.13,9.39-5.3,6.13-7.84,13.9-10.28,21.56a2,2,0,1,1-3.77-1.34Z" transform="translate(-408.85 -29.3)" style="fill:#9b5b2f"/><path d="M586.46,276.43c0,16,6.15,72,43.31,124.59,4.27,6,46.29,80.82,107.44,70.33C760,467.44,778.34,452.93,786.9,446c15.54-12.6,26.74-28.67,40.48-51.3,19.84-32.69,31.14-69.59,36-117.82C874.2,169.76,820.47,81.5,737.21,81.5S586.46,168.77,586.46,276.43Z" transform="translate(-408.85 -29.3)" style="fill:#d18d4a"/><ellipse cx="385.19" cy="220.86" rx="11.92" ry="26.78" style="fill:#1d0128"/><path d="M761,237.18c1.29.62,4.87-8,15.15-18.43,7.32-7.42,13.56-13.75,22.63-14.6,7.83-.73,14.55,2.92,18.25,4.93,10.34,5.61,11.91,12.09,18.07,11.68,5.69-.39,9.7-6.28,11.14-8.4,2.26-3.33,4.86-9.15,3.1-10.77-2-1.79-6.45,4.23-13.87,4.2-7.79,0-9.83-6.69-20.44-10.95A36.4,36.4,0,0,0,797,192.29c-15.27,2.12-24.27,16-27.75,21.35C762.14,224.54,759.55,236.49,761,237.18Z" transform="translate(-408.85 -29.3)" style="fill:#1d0128"/><path d="M762.1,160.94a136.74,136.74,0,0,1,18.79-6.34,61,61,0,0,1,21.58-1.42,79.47,79.47,0,0,1,14.93,3.68c6.18,2,12.19,4.36,18,6.91" transform="translate(-408.85 -29.3)"/><path d="M705.34,339.5c7,7.36,26.75,8.28,35.75,4.5,3.77-1.53,7.5-3.87,9.09-7.79a.41.41,0,0,1,.78.18,10.93,10.93,0,0,1-3,6.21c-9.35,9.66-27.63,8.67-38.56,2.33a13.28,13.28,0,0,1-4.86-4.87.51.51,0,0,1,.83-.56Z" transform="translate(-408.85 -29.3)" style="fill:#110800"/><path d="M667.74,379.12l126.54-6.81c-1.13,4.65-7.29,27.94-30.18,41.37-28.24,16.57-57.47,3.71-61.32,1.94C679.51,404.91,670,384.49,667.74,379.12Z" transform="translate(-408.85 -29.3)" style="fill:#f4f4e1"/><path d="M667.31,378.86c41-7.23,85.83-12,127.7-6.95a78.17,78.17,0,0,1-8.6,19.82,65.21,65.21,0,0,1-4.52,6.47,62.52,62.52,0,0,1-27.21,19.94c-19.76,7.27-42.8,4.08-60.49-7.11a73.45,73.45,0,0,1-25.8-29.32,10.68,10.68,0,0,1-1.08-2.85Zm.85.52a6,6,0,0,1,1.08,1.93c.37.79.75,1.57,1.14,2.35a71.83,71.83,0,0,0,20.75,24.88,65.79,65.79,0,0,0,22.27,10.79c36.48,10.52,71.74-10.25,80.39-47.14l.52.62a246,246,0,0,1-30.46,5.39c-32.2,3.7-62.63,2.55-95.69,1.18Z" transform="translate(-408.85 -29.3)" style="fill:#190403"/><circle cx="394.54" cy="214.39" r="6.47" style="fill:#fff"/><path d="M763.68,206.42C772,183,790.52,167,813,186.14c-2.41-1.17-4.78-2.34-7.22-3.27-.91-.36-2.75-1-3.69-1.24-18.82-5.91-29.65,11-38.43,24.79Z" transform="translate(-408.85 -29.3)" style="fill:#7c542d"/></g><g id="Layer_9_copy" data-name="Layer 9 copy"><g id="Layer_9" data-name="Layer 9"><circle cx="208.04" cy="218.21" r="136.76" style="fill:#000414"/></g><circle cx="206.55" cy="225.07" r="116.7" style="fill:#d3eaf4"/><path d="M535.81,349.77l-22,43.86-15.17-2.06c-27.77,45.93-62.06,91-89.83,136.88a92.93,92.93,0,0,0,6,24.73c12.76,31.16,40.12,14.47,45.85,14.54,25.37-47.22,59.69-100.44,85.05-147.66-2.78-7.44-5.35-8.26-8.13-15.69,11.63-19.35,12.84-21.35,24.48-40.7Z" transform="translate(-408.85 -29.3)" style="fill:#000414"/><circle cx="152.31" cy="164.1" r="29.98" style="fill:#f9f9f9"/></g><g id="Cup"><path d="M847.8,323.42a151.3,151.3,0,0,1-3.56-20.51c-1.34-13-.69-22.56.19-33.3,1.53-18.67,2.38-28.2,7.12-37.54,2.79-5.5,6.12-12.06,13.29-16.94,13.57-9.25,30.2-5.2,38.89-3.08,5.94,1.45,23.45,6.57,36.38,22.91,4.56,5.76,11.82,14.93,11.17,26.76-.58,10.54-7.16,17.95-11,22.33-12.23,14-26.62,31.87-45.24,56.4a37.8,37.8,0,0,1-19.63,2.31C858.11,340.07,849.18,325.71,847.8,323.42Z" transform="translate(-408.85 -29.3)" style="fill:#bfb0ac"/><ellipse cx="902.52" cy="248.55" rx="30.54" ry="47.4" transform="matrix(0.5, -0.87, 0.87, 0.5, -172.84, 876.58)" style="fill:#4c443d"/><path d="M865.44,255.15c-3.53-3.72,7.27-5.35,15.57-16.53,3.09-4.17,3.48-6,6.35-7.51,2.06-1.12,3.91-1.33,15.21-.77,6.47.31,9.39.55,13.86-.2,5.85-1,7.38-2.48,8.06-3.67,1.15-2,.18-3.59,1.76-5.57.14-.17,2.38-2.89,5.2-2.11a4.56,4.56,0,0,1,3.27,4.42c-.11,1.52-1.25,2.53-2.41,3.56-2.52,2.23-4.19,1.83-5.1,3.57a4.57,4.57,0,0,0,.19,4.23c1.46,2.5,5.14,2.5,6.36,2.51,5.29,0,9.09-3.74,10.78-5.4,1.09-1.07,7.48-7.35,6-12.89-.34-1.22-.88-1.78-1.74-4.62s-1.37-4.62-.57-5.78c.91-1.33,2.47-.55,4.42-1.73,2.27-1.37,2.91-4.1,3.66-7.32.86-3.67.27-4.42,1-9.82.52-4,.78-6,1.74-7.31.72-1,2.37-2.69,10.78-3.85,8.12-1.12,12.18-1.68,15.59.19,5.38,2.95,7,9,7.51,10.78,2.38,8.75-1.74,16.53-4.81,22.33a61.14,61.14,0,0,1-18.87,21c-10.92,7.71-17.33,10.78-17.33,10.78-2.91,1.39-6,2.69-9,6a17.55,17.55,0,0,0-5,10c-.48,4.48,1.21,8.54,2.31,11.16,1.28,3.07,1.88,3.14,1.8,4.1-.41,5.09-17.76,10.59-33.89,8.31-11.74-1.66-19.56-6.77-29.65-14C870.69,263.45,870.18,260.13,865.44,255.15Z" transform="translate(-408.85 -29.3)" style="fill:#af463e"/><path d="M978,237.46c-1.19-1.16.51-5.15,2.69-7.7s6.88-5.92,10.78-4.24c1.22.53,3.07,1.84,3.08,3.47,0,2.25-3.49,3.81-9.62,6.55C980.89,237.35,978.84,238.24,978,237.46Z" transform="translate(-408.85 -29.3)" style="fill:#af463e"/><g id="Handle"><g style="clip-path:url(#clip-path)"><path d="M917.24,295.6c-1.57.92-5.11-.83-5.2-2.5-.1-2.16,5.54-4.28,9.25-5a20.75,20.75,0,0,1,10.78.58c7.39,2.54,11,9,13.66,13.86a45.84,45.84,0,0,1,5.59,21.56,46.15,46.15,0,0,1-10,15.4c-4.4,4.46-9,9.18-16.17,10-8.11.95-18.12-3.27-21.76-10.39-2.44-4.77-1.82-10.43-6.54-13.29-2.11-1.27-3.73-1.05-3.85-1.92-.35-2.35,10.89-7.87,15.59-4.24.83.64,1.39,1.58,2.5,3.47,1.94,3.27,2,4.88,2.89,6.54,2.73,5.05,10.64,5.7,11.74,5.78.83.06,8.77.49,12.9-4.43,7.24-8.62-2.87-26.92-11.36-33.88-2.43-2-7-4.94-8.66-3.66C917.88,294,918.12,295.09,917.24,295.6Z" transform="translate(-408.85 -29.3)" style="fill:#827474"/><path d="M934.91,314.81c5.64,3.23,6.57,9.25,7,12,1.37,8.89-4.89,15.57-6.54,17.33a40.13,40.13,0,0,1-8.88,6.75,64,64,0,0,0,12.07-8c3.41-2.76,7.17-5.85,10.27-10.77a35.75,35.75,0,0,0,3.29-7c1.58-4.83,5.06-21.82-10.47-33.84-10.89-8.43-26.14-10.56-37.94-8.77-4.64.7-15.53,2.35-18.58,8.36-3.9,7.69,6.39,20,18.84,23.23C916.81,317.51,926.2,309.81,934.91,314.81Z" transform="translate(-408.85 -29.3)" style="fill:#c9bdbd"/></g></g></g><g id="gyro"><g id="Layer_14" data-name="Layer 14"><g style="clip-path:url(#clip-path-2)"><path d="M830.19,276.29c5.51,16.91,20.46,25.08,31.28,31,11.33,6.19,20.47,7.8,38.74,11,27.32,4.82,41,7.24,56.31.89,5.38-2.22,20.62-8.53,26.52-23.54,6-15.3-1.36-30.24-8.94-45.58-4.94-10-8.41-16.77-15.49-18.48-12.18-2.92-23.86,11.77-24.43,12.52a61.76,61.76,0,0,0-13.11-18.77c-3.92-3.83-16.63-16.22-36.36-17-22.86-.89-37.94,14.51-40.82,17.58C833.11,237.46,824,257.25,830.19,276.29Z" transform="translate(-408.85 -29.3)" style="fill:#d3c679"/><g id="Layer_15" data-name="Layer 15"><g style="clip-path:url(#clip-path-3)"><path d="M981.22,299.52c-6.24,2.91-18.53-11.22-24.4-18A130.32,130.32,0,0,1,934,243.81a35.07,35.07,0,0,1,11.15-9.42c3.57-1.89,7.78-4.13,12.48-3.29,3.56.63,6.67,2.88,11.44,9.42s11.07,15.2,13.91,29.92C983.87,275.22,988,296.38,981.22,299.52Z" transform="translate(-408.85 -29.3)" style="fill:#8c7f3f"/><path d="M933.28,249.62c5.83-3.52,15-3.21,19.67,1,1.9,1.74,3.2,4.29,5.81,9.39,3,5.8,3,7.8,5.06,8.49,3.25,1.12,5.55-3.26,10.43-2.53a9.48,9.48,0,0,1,5.66,3.27c2.8,3.6-.09,6.52,1.79,14.45.87,3.67,1.85,4.59,1.64,7.45a13.71,13.71,0,0,1-2.83,7.15c-4.51,6-13.13,6.53-16.09,6.71-13.55.83-32.06-7.69-37.54-24.43C923.73,271,923.78,255.36,933.28,249.62Z" transform="translate(-408.85 -29.3)" style="fill:#54c127"/><path d="M935.22,252c3.86-1.32,9.1,2.83,11.62,6.71,1.23,1.89.64,1.93,3.13,7.74,3.14,7.36,4.49,8.26,5.21,8.64,2.94,1.56,4.44-.74,7.75.6,3.07,1.25,2.35,3.47,7.6,9.24,2.47,2.72,3.77,4.15,6.1,5.51,2.76,1.61,4.42,1.65,4.92,3,.86,2.3-2.73,5.82-4.47,7.15-8.39,6.42-28,3.29-39-8.94-9.24-10.22-9.66-23.63-7.75-31.58C930.91,257.51,932,253.09,935.22,252Z" transform="translate(-408.85 -29.3)" style="fill:#701328"/></g></g></g></g><path d="M938.33,304.14a30.39,30.39,0,0,1,2.72,3.85" transform="translate(-408.85 -29.3)" style="fill:none;stroke:#fff;stroke-linecap:round;stroke-miterlimit:10"/><path d="M918.26,301.22a17,17,0,0,0,3.18,5.77" transform="translate(-408.85 -29.3)" style="fill:none;stroke:#fff;stroke-linecap:round;stroke-miterlimit:10"/><path d="M931.4,319.58a23.09,23.09,0,0,1,3.19,2.42,3.86,3.86,0,0,0,3.74.8" transform="translate(-408.85 -29.3)" style="fill:none;stroke:#fff;stroke-linecap:round;stroke-miterlimit:10"/><path d="M955.22,313a10.28,10.28,0,0,0,4.78,1.76" transform="translate(-408.85 -29.3)" style="fill:none;stroke:#fff;stroke-linecap:round;stroke-miterlimit:10"/><path d="M921.34,284.08a10.36,10.36,0,0,0,1.83,2.13" transform="translate(-408.85 -29.3)" style="fill:none;stroke:#fff;stroke-linecap:round;stroke-miterlimit:10"/><path d="M899.2,261.09a5.29,5.29,0,0,0,1.44,4.14" transform="translate(-408.85 -29.3)" style="fill:none;stroke:#fff;stroke-linecap:round;stroke-miterlimit:10"/><path d="M886.43,226.54a6.39,6.39,0,0,0,1,4.38" transform="translate(-408.85 -29.3)" style="fill:none;stroke:#fff;stroke-linecap:round;stroke-miterlimit:10"/><path d="M923.5,258.28l2.44,3.86" transform="translate(-408.85 -29.3)" style="fill:none;stroke:#fff;stroke-linecap:round;stroke-miterlimit:10"/><path d="M904.53,242.27a14.19,14.19,0,0,0,1.37,3.38" transform="translate(-408.85 -29.3)" style="fill:none;stroke:#fff;stroke-linecap:round;stroke-miterlimit:10"/><path d="M924.91,236.24l1.24,4.21" transform="translate(-408.85 -29.3)" style="fill:none;stroke:#fff;stroke-linecap:round;stroke-miterlimit:10"/><path d="M858.42,223.93l2,4.58" transform="translate(-408.85 -29.3)" style="fill:none;stroke:#fff;stroke-linecap:round;stroke-miterlimit:10"/><path d="M871.06,247.24l2.81,5.06" transform="translate(-408.85 -29.3)" style="fill:none;stroke:#fff;stroke-linecap:round;stroke-miterlimit:10"/><path d="M896.84,284.5a30.32,30.32,0,0,0,4.54,3.42" transform="translate(-408.85 -29.3)" style="fill:none;stroke:#fff;stroke-linecap:round;stroke-miterlimit:10"/><path d="M872.21,280.17a6.85,6.85,0,0,0,3.32,6" transform="translate(-408.85 -29.3)" style="fill:none;stroke:#fff;stroke-linecap:round;stroke-miterlimit:10"/><path d="M881,306.07c1.48,3,3.26,6.2,6.4,7.27" transform="translate(-408.85 -29.3)" style="fill:none;stroke:#fff;stroke-linecap:round;stroke-miterlimit:10"/><path d="M843.54,287.81l2.51,3.42c.59.8,1.34,1.68,2.32,1.61" transform="translate(-408.85 -29.3)" style="fill:none;stroke:#fff;stroke-linecap:round;stroke-miterlimit:10"/><path d="M835.86,269.43a17.35,17.35,0,0,0,3.12,5.8" transform="translate(-408.85 -29.3)" style="fill:none;stroke:#fff;stroke-linecap:round;stroke-miterlimit:10"/><path d="M836.52,254.7a17.07,17.07,0,0,0,1.35,3.95,5.77,5.77,0,0,0,3,2.79" transform="translate(-408.85 -29.3)" style="fill:none;stroke:#fff;stroke-linecap:round;stroke-miterlimit:10"/></g><g id="Burger"><path d="M874.79,322c1.77,3.09,7.23,12.7,14.19,16.79,1.91,1.13,10.52,4.46,15.79,4.06,14.34-1.1,16.59-2.34,21.69-4.37,11-4.36,11.42-5.11,13.45-6.89,5-4.42,10.14-7.66,12.09-13.8,3.42-10.72-4.11-19.56-5.44-20.8" transform="translate(-408.85 -29.3)" style="fill:#d18d4a"/><ellipse cx="911.97" cy="311.3" rx="38.87" ry="20.61" transform="translate(-454.54 174.84) rotate(-12.46)" style="fill:#e5aa6a"/><g id="Bun"><g style="clip-path:url(#clip-path-4)"><path d="M839.56,209.08a2.18,2.18,0,0,0,1,1.32,40.6,40.6,0,0,0,11,4.23c6.26,1.39,11.18.89,16.6.28a84.63,84.63,0,0,0,20.29-5,74.11,74.11,0,0,0,19.71-10.5,86.89,86.89,0,0,0,14.72-13.85,2.2,2.2,0,0,0,.44-1.6,25.77,25.77,0,0,0-2.52-7.43c-.67-1.38-3.25-8.16-14.48-13.58a56,56,0,0,0-24.12-5.53,46.32,46.32,0,0,0-28.51,9.22,40.21,40.21,0,0,0-12.62,16.6A41.12,41.12,0,0,0,839.56,209.08Z" transform="translate(-408.85 -29.3)" style="fill:#d18d4a"/><path d="M835.62,205.05c1-1.17,4.91,1.29,9.78,3,5.81,2,10.46,2,16.6,2,13.43,0,24.76-3.37,29.86-5.64a91.88,91.88,0,0,0,21.35-13.26c6.4-5.3,8.51-8.23,10.71-11.63.41-.64,2.66,1.38,2.66,10.32,0,8.64,0,24.78-10.75,37.66-18.75,22.47-58.69,21.22-68.19,8-3.8-5.29-2.94-12.75-10.22-24.9C836.64,209.27,834.67,206.1,835.62,205.05Z" transform="translate(-408.85 -29.3)" style="fill:#e5aa6a"/><path d="M848.6,189.94A10.68,10.68,0,0,1,850,191" transform="translate(-408.85 -29.3)" style="fill:none;stroke:#f7e7d7;stroke-miterlimit:10"/><path d="M849.59,182a5.84,5.84,0,0,0,1.55.94" transform="translate(-408.85 -29.3)" style="fill:none;stroke:#f7e7d7;stroke-miterlimit:10"/><path d="M853.34,175.05a16.76,16.76,0,0,1,1.34,1" transform="translate(-408.85 -29.3)" style="fill:none;stroke:#f7e7d7;stroke-miterlimit:10"/><path d="M866.17,197.35a10.6,10.6,0,0,0,1.59.86" transform="translate(-408.85 -29.3)" style="fill:none;stroke:#f7e7d7;stroke-miterlimit:10"/><path d="M875.13,163.61l1,.75" transform="translate(-408.85 -29.3)" style="fill:none;stroke:#f7e7d7;stroke-miterlimit:10"/><path d="M870.44,175.4a3.41,3.41,0,0,1,1.07.42" transform="translate(-408.85 -29.3)" style="fill:none;stroke:#f7e7d7;stroke-miterlimit:10"/><path d="M893,188.51a3.31,3.31,0,0,0,1.25.61" transform="translate(-408.85 -29.3)" style="fill:none;stroke:#f7e7d7;stroke-miterlimit:10"/><path d="M895.48,163.42a2.55,2.55,0,0,1,1,.93" transform="translate(-408.85 -29.3)" style="fill:none;stroke:#f7e7d7;stroke-miterlimit:10"/><path d="M906.48,175.74a9.9,9.9,0,0,1,1.26.74" transform="translate(-408.85 -29.3)" style="fill:none;stroke:#f7e7d7;stroke-miterlimit:10"/><path d="M910.42,184.92a1.57,1.57,0,0,1,.28,1.4" transform="translate(-408.85 -29.3)" style="fill:none;stroke:#f7e7d7;stroke-miterlimit:10"/><path d="M887.6,172.14a2.11,2.11,0,0,1,.78,1.14" transform="translate(-408.85 -29.3)" style="fill:none;stroke:#f7e7d7;stroke-miterlimit:10"/><path d="M886.69,157.73a6.23,6.23,0,0,1,.78,1.07" transform="translate(-408.85 -29.3)" style="fill:none;stroke:#f7e7d7;stroke-miterlimit:10"/><path d="M860.94,164.13A3,3,0,0,1,862,165" transform="translate(-408.85 -29.3)" style="fill:none;stroke:#f7e7d7;stroke-miterlimit:10"/><path d="M881.49,201.38l1.07,1.19" transform="translate(-408.85 -29.3)" style="fill:none;stroke:#f7e7d7;stroke-miterlimit:10"/><path d="M854,204.49a3.64,3.64,0,0,1,1.84.28" transform="translate(-408.85 -29.3)" style="fill:none;stroke:#f7e7d7;stroke-miterlimit:10"/><path d="M841.66,197.3a18.34,18.34,0,0,0,1.74,1.18" transform="translate(-408.85 -29.3)" style="fill:none;stroke:#f7e7d7;stroke-miterlimit:10"/></g></g><g id="Onions"><g id="Onion1_copy" data-name="Onion1 copy"><g style="clip-path:url(#clip-path-5)"><path d="M925.08,267.22c-12-5.19-24.11-3.79-27.11,3.14s4.27,16.74,16.25,21.93,24.11,3.78,27.11-3.14S937.06,272.41,925.08,267.22Zm13.59,21.06c-1.63,3.31-10,2.53-18.62-1.74s-14.35-10.4-12.72-13.71,10-2.52,18.62,1.74S940.3,285,938.67,288.28Z" transform="translate(-408.85 -29.3)" style="fill:#e4b5ea;stroke:#b947bf;stroke-miterlimit:10"/><path d="M941.05,285.82a27.41,27.41,0,0,0-11.5-14,28.15,28.15,0,0,0-13.94-3.7,29,29,0,0,0-10.46,1.95" transform="translate(-408.85 -29.3)" style="fill:none;stroke:#e5dae5;stroke-miterlimit:10;stroke-width:0.5px"/><path d="M940,287.18a20.28,20.28,0,0,0-4.28-8.73c-4.47-5.31-10.49-6.91-13.62-7.74a33.84,33.84,0,0,0-14-.66" transform="translate(-408.85 -29.3)" style="fill:none;stroke:#e5dae5;stroke-miterlimit:10;stroke-width:0.5px"/><path d="M941.09,284.91a12,12,0,0,0-3.11-8c-4.62-5.67-11.89-8.67-19.15-9.59s-14.61,0-21.86.92" transform="translate(-408.85 -29.3)" style="fill:none;stroke:#e5dae5;stroke-miterlimit:10;stroke-width:0.5px"/><path d="M941.33,289.15a9.84,9.84,0,0,0-.32-7.86l0,0a29.65,29.65,0,0,0-.41,3,8,8,0,0,1-2,4.06c-1.74,3.19-10,2.39-18.56-1.84s-14.35-10.4-12.72-13.71a3,3,0,0,1,.38-.57,13.61,13.61,0,0,1,2.49-5.55,5.22,5.22,0,0,0,1-1.65,1.61,1.61,0,0,0,0-1c-6.34,0-11.41,2.13-13.2,6.27-3,6.92,4.27,16.74,16.25,21.93S938.33,296.07,941.33,289.15Z" transform="translate(-408.85 -29.3)" style="fill:#c989c9;stroke:#954799;stroke-miterlimit:10"/></g></g><g id="Onion1_copy_2" data-name="Onion1 copy 2"><g style="clip-path:url(#clip-path-6)"><path d="M870.88,292.15c2.45,5.61,12.38,6.74,22.18,2.54s15.75-12.14,13.29-17.74-12.38-6.74-22.18-2.54S868.42,286.55,870.88,292.15Zm12.58-11.79c7.08-3.45,13.9-4.09,15.23-1.41s-3.32,7.64-10.4,11.09-13.9,4.09-15.24,1.41S876.38,283.81,883.46,280.36Z" transform="translate(-408.85 -29.3)" style="fill:#e4b5ea;stroke:#b947bf;stroke-miterlimit:10"/><path d="M871.11,289.46a22.19,22.19,0,0,1,9.41-11.34,23.29,23.29,0,0,1,11.4-3,23.78,23.78,0,0,1,8.56,1.58" transform="translate(-408.85 -29.3)" style="fill:none;stroke:#e5dae5;stroke-miterlimit:10;stroke-width:0.5px"/><path d="M872,290.56a16.36,16.36,0,0,1,3.5-7.07c3.65-4.29,8.58-5.58,11.14-6.26a28.28,28.28,0,0,1,11.44-.54" transform="translate(-408.85 -29.3)" style="fill:none;stroke:#e5dae5;stroke-miterlimit:10;stroke-width:0.5px"/><path d="M871.07,288.72a9.69,9.69,0,0,1,2.55-6.45c3.78-4.59,9.73-7,15.66-7.77s12,0,17.9.75" transform="translate(-408.85 -29.3)" style="fill:none;stroke:#e5dae5;stroke-miterlimit:10;stroke-width:0.5px"/><path d="M870.88,292.15a7.84,7.84,0,0,1,.26-6.36s0,0,0,0c.22.79.2,1.62.34,2.42a6.51,6.51,0,0,0,1.61,3.28c1.43,2.58,8.18,1.93,15.19-1.49S900,281.62,898.69,279a1.77,1.77,0,0,0-.31-.46,10.84,10.84,0,0,0-2-4.49,4.14,4.14,0,0,1-.82-1.34,1.38,1.38,0,0,1,0-.78c5.19,0,9.34,1.72,10.8,5.07,2.46,5.6-3.49,13.54-13.29,17.74S873.33,297.76,870.88,292.15Z" transform="translate(-408.85 -29.3)" style="fill:#c989c9;stroke:#954799;stroke-miterlimit:10"/></g></g></g><g id="patty_" data-name="patty]"><g style="clip-path:url(#clip-path-7)"><path d="M863.77,248.54c-.43,2-.85,1.66-2.27,4.39s2,4.61,1,9.64a2.67,2.67,0,0,0,.71,2.77c.6.64.79,1.26,1.41,1.91.9.94.08,2.31.29,3.83.46,3.37,5.68,5.3,7.09,5.82a45.13,45.13,0,0,0,7.09,1.28c3.31.47,5,.71,5.82.56,3.26-.54,4.35-2.44,7-2,1.27.22,1.17.71,2.7,1.27,3,1.13,7.38.7,9.92-1.7,2-1.86,1.2-3.34,3.13-4.54s3.29.17,6.52-.71a12.48,12.48,0,0,0,6.1-4.11c2.19-2.61,1.46-3.91,3.4-5.53,2.46-2,4.2-.46,6.39-2.13,2-1.53,2.33-5.32,3-12.91.24-2.88.1-2.72.42-6.52.46-5.45.75-5.81.43-7.24-.8-3.58-3.61-5.84-5.53-7.37a25.23,25.23,0,0,0-7.66-4c-4.23-1.52-9-3.24-14.33-3-3.53.17-4.4,1.08-15.32,6.24-8.23,3.88-12.49,5.62-19.15,9.78-6.19,3.88-8.61,6.2-8.37,8.52C863.79,245.68,864.21,246.49,863.77,248.54Z" transform="translate(-408.85 -29.3)" style="fill:#7a2913"/><path d="M865.9,262.5c1.09,1.43,2.32,1.33,4.4,2.56s1.51,1.64,2.69,2.05c2.19.77,3.39-1,6.6-1.13,2.41-.12,2.34.84,5.39,1.13a18.06,18.06,0,0,0,7.73-1.13c4.15-1.43,4.61-3,7.09-2.84s2.84,1.94,5.11,1.84c2.77-.11,5.2-2.84,6.31-4.89,1.27-2.33.76-3.62,2.2-4.68.61-.45,1.2-.59,4.61-.78,5.18-.29,5.38,0,6-.5,1.49-1,.78-2.57,2.55-7.59.86-2.41,1.31-3.64,2.42-4.68,2-1.9,3.83-1.17,5.17-2.41,2.36-2.18,1.23-8.56-1.56-12.91-4.76-7.45-14.41-9-21.7-10.21a46.05,46.05,0,0,0-16.6-.21c-11.57,2.09-18.7,8.3-25.53,14.25-4.75,4.14-13.84,12.06-11.92,17.17.93,2.45,4.69,5,4.05,8.58-.15.79-.5,1.57-.07,2.34.73,1.31,2.75.77,4.18,2.48C865.62,261.63,865.3,261.72,865.9,262.5Z" transform="translate(-408.85 -29.3)" style="fill:#a52f2f"/></g></g><path d="M850.4,231.44c-2-.23-3-1-4.25-.54-1.81.72-2.43,3.5-2.66,6l4.36,1.92-1,5.95a8.62,8.62,0,0,0,4.26,4.37c2.21.88,3.42-.11,9.36-1,4.62-.66,6.93-1,9.47-.53,2.74.49,4.15,1.4,5.11.64,1.23-1,.6-3.83-.11-6.07l4.15,3.51a22,22,0,0,0,4.47-.85,24,24,0,0,0,4.68-2c4.13-2.23,6.19-3.35,6.7-5.11.89-3-2.29-6.32-2.87-6.91a19.89,19.89,0,0,0,10.64.32c5.5-1.42,11.28-5.67,10.64-8.3-.2-.8-1.14-2.06-5.75-2.77,9.33.74,12.43-1,13.41-2.87.49-.94.3-1.63,1.17-3.3s1.7-2.18,4.78-5.21,3.64-3.9,3.83-5.11c0-.3.37-2.21-.74-3.3s-2.79-.77-3.62-.63a93,93,0,0,0-21.91,6.49c-17.09,8-23.37,6.64-26.28,13.19-1.71,3.84-.28,5.93-2.66,8.08-4.15,3.75-10-1.24-18.09,2.24C855.64,230.44,853.46,231.78,850.4,231.44Z" transform="translate(-408.85 -29.3)" style="fill:#74ce4a"/><path d="M893.17,327.13a30.92,30.92,0,0,1,11.94-10,19.94,19.94,0,0,1,9.28-2.43c2.57.08,4.81,1,7.3,1.28a16.92,16.92,0,0,0,11.38-2.68c3.1-2.19,4.61-5.57,3.46-8.24" transform="translate(-408.85 -29.3)" style="fill:none;stroke:#f70303;stroke-linecap:round;stroke-miterlimit:10;stroke-width:6px"/><path d="M886.68,317.21c2.58-4,7.58-7,12.53-9.56a19.52,19.52,0,0,1,7.71-2.65c4.11-.23,7.75,2.07,11.79,1,2.74-.72,4.57-2.74,6.14-4.6" transform="translate(-408.85 -29.3)" style="fill:none;stroke:#f4c606;stroke-linecap:round;stroke-miterlimit:10;stroke-width:6px"/></g></svg>