<svg xmlns="http://www.w3.org/2000/svg" viewBox="0 0 407.36 51.34"><g id="Layer_1" data-name="Layer 1"><text transform="translate(0 38.54)" style="font-size:46.811527252197266px;fill:#fff;font-family:Courgette-Regular, Courgette"><tspan xml:space="preserve">What’s F  r Dinner?</tspan></text></g><g id="Layer_2" data-name="Layer 2"><path d="M237.53,31.64a13.84,13.84,0,1,0,13.84,13.84A13.84,13.84,0,0,0,237.53,31.64Zm0,16.93a3.09,3.09,0,1,1,3.09-3.09A3.09,3.09,0,0,1,237.53,48.57Z" transform="translate(-40.33 -17.88)" style="fill:#d6ad6b;stroke:#664c23;stroke-miterlimit:10;stroke-width:0.25px"/><path d="M250.86,41.8a14.75,14.75,0,0,0-2.31-4.68c-.07-.09-.13-.18-.2-.26-.19-.24-.4-.47-.61-.71s-.22-.25-.34-.37a12.64,12.64,0,0,0-1-.92s0,0-.07,0l0,0c-.24-.19-.5-.38-.75-.56a14.68,14.68,0,0,0-7.08-2.54l-.81,0h-.44l-.88,0-.43,0-.57.08c-.4.07-.78.14-1.15.23l-.38.1a14.78,14.78,0,0,0-6.61,4.11,13.78,13.78,0,0,0-3.47,7.93c.07.35.18.79.31,1.53a5.9,5.9,0,0,0,.71,2.07.93.93,0,0,0,.48.46.74.74,0,0,0,.77-.34,4.6,4.6,0,0,0,.4-.8,1.54,1.54,0,0,1,.78-.77.91.91,0,0,1,1,.25,1.42,1.42,0,0,1,.2.7c.14,1.15.35,2.44,1.31,3.08a.36.36,0,0,0,.18.08.38.38,0,0,0,.27-.16,3.67,3.67,0,0,0,.62-1c.14-.35.21-.72.38-1.06a1.23,1.23,0,0,1,.82-.71,1.27,1.27,0,0,1,1.22.74c.25.44.35.94.59,1.39a1.31,1.31,0,0,0,1.18.8,1.16,1.16,0,0,0,.91-.76,4.9,4.9,0,0,0,.32-1.4h0a3.09,3.09,0,1,1,2.48.06,11.5,11.5,0,0,0,.56,3,2.17,2.17,0,0,0,1.21,1.53,1.59,1.59,0,0,0,1.69-.72,4.29,4.29,0,0,0,.56-1.87,17.51,17.51,0,0,1,.86-4.85c0-.07.08-.16.16-.18a.25.25,0,0,1,.18.06,1.56,1.56,0,0,1,.56,1.29,5.92,5.92,0,0,0,.1,1.46,2,2,0,0,0,1.1,1.22.67.67,0,0,0,.31.07c.31,0,.43-.41.49-.72q.38-2.14.87-4.26c.08-.33.21-.7.53-.81a.69.69,0,0,1,.78.45,2,2,0,0,1,.06,1c-.13,1.14-.25,2.29-.37,3.44a4.35,4.35,0,0,0,0,1.44,1.45,1.45,0,0,0,.87,1.07c.48.16,1-.39,1.14-.57a1.74,1.74,0,0,0,.19-.26,13.71,13.71,0,0,0,.81-4.64A13.52,13.52,0,0,0,250.86,41.8Z" transform="translate(-40.33 -17.88)" style="fill:#e588e5;stroke:#991c99;stroke-miterlimit:10;stroke-width:0.25px"/></g><g id="Layer_3" data-name="Layer 3"><rect x="227.42" y="39.71" width="1.04" height="2.8" rx="0.52" transform="translate(-30.35 101.6) rotate(-30)" style="fill:#fff"/><rect x="231.68" y="33.97" width="1.04" height="2.8" rx="0.52" transform="translate(-38.82 -26.67) rotate(2.18)" style="fill:#fff"/><rect x="242.17" y="41.44" width="1.04" height="2.8" rx="0.52" transform="translate(-29.24 109.21) rotate(-30)" style="fill:#fff"/><rect x="235.55" y="38.96" width="1.04" height="2.8" rx="0.52" transform="translate(170.19 260.61) rotate(-93.58)" style="fill:#fff"/><rect x="240.03" y="34.88" width="1.04" height="2.8" rx="0.52" transform="translate(126.93 -213.56) rotate(63.89)" style="fill:#fff"/><rect x="244.97" y="38.2" width="1.04" height="2.8" rx="0.52" transform="translate(-27.25 110.18) rotate(-30)" style="fill:#fff"/><rect x="229.72" y="45.56" width="1.04" height="2.8" rx="0.52" transform="translate(-10.18 -94.13) rotate(20.1)" style="fill:#fff"/><rect x="236.69" y="32.09" width="1.04" height="2.8" rx="0.52" transform="matrix(0.59, -0.81, 0.81, 0.59, 30.66, 188.13)" style="fill:#fff"/><rect x="249.85" y="43.58" width="1.04" height="2.8" rx="0.52" transform="translate(33.59 -156.14) rotate(35.9)" style="fill:#fff"/></g></svg>