<svg xmlns="http://www.w3.org/2000/svg" xmlns:xlink="http://www.w3.org/1999/xlink" viewBox="0 0 312.83 305.3"><defs><clipPath id="clip-path" transform="translate(-314.83 -254.79)"><ellipse cx="555.35" cy="280.42" rx="16.92" ry="8.11" transform="translate(85.36 688.05) rotate(-67.73)" style="fill:none"/></clipPath><clipPath id="clip-path-2" transform="translate(-314.83 -254.79)"><path d="M356.35,519.2A124,124,0,0,0,395.42,548c21.79,10.18,40.83,11.2,53.85,11.76,23.39,1,41.27-3.2,56.14-6.83a251,251,0,0,0,37.93-12.51c11.86-12.72,26.47-32.39,34.51-59.17,2.81-9.38,6.51-22.11,5.31-39.06a103.8,103.8,0,0,0-13.27-42.48c-6.8-12-13.76-18.73-26.55-31.1-4.76-4.61-9-8.23-15.18-11-5-2.27-9.55-3.13-19-4.18-11.78-1.3-17.67-1.95-28.45-2.06a291.42,291.42,0,0,0-50.82,3.2,280.37,280.37,0,0,0-36.41,8.73,69.12,69.12,0,0,0-9.86,3.79c-8,3.82-12.78,8.14-20.1,14.79-15.09,13.71-22.67,20.63-24.66,23.89a63.77,63.77,0,0,0-8,21.62c-3,14.92-.81,26.87.76,34.9,2.14,10.93,5.39,18.58,9.1,27.31A204.7,204.7,0,0,0,356.35,519.2Z" style="fill:none"/></clipPath><linearGradient id="linear-gradient" x1="248.28" y1="277.87" x2="278.37" y2="221.23" gradientUnits="userSpaceOnUse"><stop offset="0.58" stop-color="#141414"/><stop offset="1" stop-color="#565656"/></linearGradient><linearGradient id="linear-gradient-2" x1="69.68" y1="286.44" x2="-11.87" y2="207.93" gradientUnits="userSpaceOnUse"><stop offset="0" stop-color="#bababa"/><stop offset="1"/></linearGradient><clipPath id="clip-path-3" transform="translate(-314.83 -254.79)"><path d="M330.56,429.42c-1.7,21.07,4.18,35.3,7.59,42,4.58,9,16.83,19.15,41.34,39.44,5.28,4.38,12.47,10.15,23.13,12.9a65.51,65.51,0,0,0,15.17,1.9c7.89-.11,9.42-1.84,16.69-1.52,9.14.4,8.68.54,15.17,0,7.21-.61,10.23-1.6,18.59-.76a28.17,28.17,0,0,1,4.17.76c15.67,3.71,30.95-4.54,55.75-4.17,6.76.1,12.1-.33,18-4.17,3.12-2,5.47-3.32,8.53-8,6.78-10.27,10.16-15.4,13.28-22,8.12-17.21,13.76-34.48,15.17-43.61l5.69-33-55.76-57.86-99.37-14.58-99,16.3-19.34,52.72Z" style="fill:none"/></clipPath><linearGradient id="linear-gradient-3" x1="18.25" y1="250.43" x2="215.1" y2="144.61" gradientUnits="userSpaceOnUse"><stop offset="0" stop-color="#bababa"/><stop offset="0.8" stop-color="#111"/></linearGradient><clipPath id="clip-path-4" transform="translate(-314.83 -254.79)"><ellipse cx="456.41" cy="438.92" rx="120.86" ry="82.79" style="fill:none"/></clipPath><clipPath id="clip-path-5" transform="translate(-314.83 -254.79)"><path d="M404.2,433.7s11.77-6.83,24.53-8.34c7.19-.86,13.83-6.34,23.93-3.05,14.15,4.6,19,8.74,26.89,9.24,12,.76,15.94-1.65,18.9-3.67,4.18-2.84,7.23-3.84,9.17-6.06l-4.05-21c-7.07,4.56-17,9.28-25.53,5.81-2.69-1.09-3.35-2.22-6.07-4-10.14-6.78-22.48-5.4-32.37-4.3a86.09,86.09,0,0,0-30.85,9.86,102.72,102.72,0,0,0-18.2,11.89A29.39,29.39,0,0,0,404.2,433.7Z" style="fill:none"/></clipPath><clipPath id="clip-path-6" transform="translate(-314.83 -254.79)"><path d="M353.55,519.2A124,124,0,0,0,392.61,548c21.79,10.18,40.84,11.2,53.86,11.76,23.39,1,41.26-3.2,56.13-6.83a250.64,250.64,0,0,0,37.93-12.51c11.86-12.72,26.47-32.39,34.52-59.17,2.81-9.38,6.51-22.11,5.31-39.06a104.06,104.06,0,0,0-13.28-42.48c-6.79-12-13.76-18.73-26.55-31.1-4.76-4.61-9-8.23-15.17-11-5.06-2.27-9.56-3.13-19-4.18-11.78-1.3-17.67-1.95-28.45-2.06a291.37,291.37,0,0,0-50.82,3.2,280.37,280.37,0,0,0-36.41,8.73,68.75,68.75,0,0,0-9.87,3.79c-8,3.82-12.78,8.14-20.1,14.79-15.08,13.71-22.66,20.63-24.65,23.89a63.77,63.77,0,0,0-8,21.62c-3,14.92-.82,26.87.75,34.9,2.14,10.93,5.4,18.58,9.11,27.31A203.7,203.7,0,0,0,353.55,519.2Z" style="fill:none"/></clipPath><linearGradient id="linear-gradient-4" x1="462.16" y1="583.74" x2="449.27" y2="375.14" gradientUnits="userSpaceOnUse"><stop offset="0" stop-color="#ef0606"/><stop offset="0.17" stop-color="#f21c25" stop-opacity="0.81"/><stop offset="0.58" stop-color="#f94f6d" stop-opacity="0.38"/><stop offset="0.87" stop-color="#fd6f9a" stop-opacity="0.11"/><stop offset="1" stop-color="#ff7bac" stop-opacity="0"/></linearGradient></defs><g id="Layer_8" data-name="Layer 8"><path d="M513.29,363.45c-3.23-8.4,9.42-14.06,18.05-38,2.14-5.93,5.2-14.43,5.71-26,.6-13.58-3-16.65-.4-24.34,3.42-10.19,16.24-24.33,28.19-19.24,11.37,4.86,12.43,9.31,12.51,19,.09,10.05-1.69,10.84-7.08,18.9-2.73,4.08-7,7-11.24,11.29-8.26,8.31-12,23.43-15.44,35.32-5.65,19.83-2.61,27.33-8.49,30.72C528.56,374.89,516.06,370.63,513.29,363.45Z" transform="translate(-314.83 -254.79)" style="fill:#4c4c4c"/><g id="Layer_9" data-name="Layer 9"><g style="clip-path:url(#clip-path)"><ellipse cx="555.35" cy="280.42" rx="16.92" ry="8.11" transform="translate(-229.47 433.26) rotate(-67.73)" style="fill:#303030"/><ellipse cx="557.25" cy="281.2" rx="16.92" ry="6.05" transform="translate(-229.01 435.5) rotate(-67.73)" style="fill:#f9f9f9"/></g></g><ellipse cx="545.85" cy="305.62" rx="3.37" ry="4.12" transform="translate(-168.93 531.86) rotate(-79.5)" style="fill:#7f7f7f"/><line x1="230.23" y1="51.97" x2="231.82" y2="48.74" style="fill:none;stroke:#111;stroke-miterlimit:10;stroke-width:0.25px"/><line x1="228.98" y1="49.55" x2="233.1" y2="50.54" style="fill:none;stroke:#111;stroke-miterlimit:10;stroke-width:0.25px"/></g><g id="Layer_2" data-name="Layer 2"><g style="clip-path:url(#clip-path-2)"><path d="M356.35,519.2A124,124,0,0,0,395.42,548c21.79,10.18,40.83,11.2,53.85,11.76,23.39,1,41.27-3.2,56.14-6.83a251,251,0,0,0,37.93-12.51c11.86-12.72,26.47-32.39,34.51-59.17,2.81-9.38,6.51-22.11,5.31-39.06a103.8,103.8,0,0,0-13.27-42.48c-6.8-12-13.76-18.73-26.55-31.1-4.76-4.61-9-8.23-15.18-11-5-2.27-9.55-3.13-19-4.18-11.78-1.3-17.67-1.95-28.45-2.06a291.42,291.42,0,0,0-50.82,3.2,280.37,280.37,0,0,0-36.41,8.73,69.12,69.12,0,0,0-9.86,3.79c-8,3.82-12.78,8.14-20.1,14.79-15.09,13.71-22.67,20.63-24.66,23.89a63.77,63.77,0,0,0-8,21.62c-3,14.92-.81,26.87.76,34.9,2.14,10.93,5.39,18.58,9.1,27.31A204.7,204.7,0,0,0,356.35,519.2Z" transform="translate(-314.83 -254.79)" style="fill:#4c4c4c"/><polygon points="228.12 285.9 236.47 249.24 268.56 173.63 312.83 222.44 251.89 305.15 227.11 284.64 228.12 285.9" style="fill:url(#linear-gradient)"/><polygon points="74.64 263.65 80.71 298.14 0.56 269.72 11.68 180.78 74.64 263.65" style="fill:url(#linear-gradient-2)"/><polygon points="115.35 303.86 112.82 265.67 74.64 263.65 80.71 298.14 115.35 305.15 115.35 303.86" style="fill:#919191"/><g id="Layer_6" data-name="Layer 6"><g style="clip-path:url(#clip-path-3)"><path d="M330.56,429.42c-1.7,21.07,4.18,35.3,7.59,42,4.58,9,16.83,19.15,41.34,39.44,5.28,4.38,12.47,10.15,23.13,12.9a65.51,65.51,0,0,0,15.17,1.9c7.89-.11,9.42-1.84,16.69-1.52,9.14.4,8.68.54,15.17,0,7.21-.61,10.23-1.6,18.59-.76a28.17,28.17,0,0,1,4.17.76c15.67,3.71,30.95-4.54,55.75-4.17,6.76.1,12.1-.33,18-4.17,3.12-2,5.47-3.32,8.53-8,6.78-10.27,10.16-15.4,13.28-22,8.12-17.21,13.76-34.48,15.17-43.61l5.69-33-55.76-57.86-99.37-14.58-99,16.3-19.34,52.72Z" transform="translate(-314.83 -254.79)" style="fill:#898989"/><path d="M331,429.3c-1.23,12.29-.06,24.51,4.4,36A41.46,41.46,0,0,0,341.13,476a71.23,71.23,0,0,0,8.29,8.9c8.94,8.26,18.65,15.65,28.13,23.28,3.19,2.53,6.32,5.09,9.67,7.26,9.85,6.74,22.14,9.56,34,8.8,2-.16,3.89-.53,5.93-.88,4.07-.77,8.32-.34,12.4-.13,5.84.51,12.24-.35,18.07-.87a51.68,51.68,0,0,1,12.36.47,47.65,47.65,0,0,0,11.92,1.64c12.15-.26,24-3.72,36.2-4.34,3.63-.28,8.52-.27,12.18-.24a29.91,29.91,0,0,0,11.92-2,32,32,0,0,0,10-6.79c2.4-2.63,4.88-7.06,6.92-10a125.12,125.12,0,0,0,11.59-21.38c4.8-11.16,9.1-22.64,11.7-34.53,1.53-8.2,4.52-27.59,6-36,1.5,2-56.86-58.66-55.33-57.32q-24.76-4.06-49.6-7.74c-6.18-1-18.65-2.77-24.84-3.63q-12.43-1.75-24.93-3.21c.73-.2-99,16.42-98.84,16.31l.39-.32L315.86,406l-.05-.45L331,429.3Zm-1,.24L315,406.06l-.14-.2c-.05-.26,19.44-52.7,19.43-53l.1-.27.29-.05c.19,0,99-16.38,99.18-16.3,11.89,2.08,25.16,4.2,37.18,6s25.29,3.62,37.28,5.3c8.28,1.17,16.58,2.23,24.88,3.32l.16,0,.12.12,0,0,55.73,57.83.18.18,0,.25v0c-1.55,8.53-5,27.75-6.53,36-2.7,11.91-7.17,23.33-12,34.5a125.94,125.94,0,0,1-11.67,21.35c-2,3-4.56,7.35-6.95,10a33.31,33.31,0,0,1-10,6.81c-7.62,3.26-16.08,1.5-24.09,2.47-13.21.8-26,5.48-39.29,5.22a56.76,56.76,0,0,1-9.09-1.33,50.81,50.81,0,0,0-11.95-.13l-6,.75a68.55,68.55,0,0,1-12.31.54c-4-.14-7.94-.48-11.9.29-14.13,2.92-29.7,0-41.47-8.54-9.74-7.46-18.62-15.77-27.85-23.82-6-5.48-12.14-10.87-17.09-17.33-9.18-13.27-11.77-30.73-11-46.52Z" transform="translate(-314.83 -254.79)" style="fill:#fff"/></g></g><g id="Layer_3" data-name="Layer 3"><ellipse cx="141.58" cy="184.13" rx="120.86" ry="82.79" style="fill:url(#linear-gradient-3)"/><g id="Layer_5" data-name="Layer 5"><g style="clip-path:url(#clip-path-4)"><path d="M364.88,493.41c-7.89-8.22-9.69-7.78-13.11-12.54-11.32-15.7-4.36-38.11-3.7-40.13,5.08-15.63,16.3-24.08,24.3-30.1a91.84,91.84,0,0,1,39.9-16.9c14.12-2.16,25.19,0,34.08-3.69a21.15,21.15,0,0,1,16.91-.53c6.53,2.27,11.39,2.25,17.18,2.9s13.27,2.73,28.27,6.87c11.45,3.16,17.17,4.74,21.4,6.6a98.65,98.65,0,0,1,22.46,14c11.08,8.77,16.62,13.15,20.08,20.07,9.19,18.39-3,40.94-5.29,45.15-12.12,22.39-33.91,31.43-50.46,38-57.42,22.86-122.13,11.51-135.81-8.71A127.09,127.09,0,0,0,364.88,493.41Z" transform="translate(-314.83 -254.79)" style="fill:#595959;stroke:#020202;stroke-miterlimit:10;stroke-width:0.25px"/><path d="M374,489c-7.55-7.87-9.27-7.45-12.55-12-10.83-15-4.17-36.5-3.54-38.43,4.86-15,15.6-23.06,23.26-28.83a87.85,87.85,0,0,1,38.18-16.18c13.52-2.07,24.11,0,32.62-3.54a20.17,20.17,0,0,1,16.18-.5c6.25,2.18,10.9,2.15,16.44,2.78s12.7,2.61,27.05,6.57c11,3,16.44,4.54,20.48,6.32a94.49,94.49,0,0,1,21.5,13.4c10.6,8.4,15.9,12.59,19.21,19.22,8.8,17.62-2.88,39.21-5,43.24-11.6,21.44-32.45,30.1-48.3,36.41-55,21.9-116.88,11-130-8.34A122.12,122.12,0,0,0,374,489Z" transform="translate(-314.83 -254.79)" style="fill:none"/><path d="M350.9,479.52c1.87-4.33,5.24-7.59,9.05-8.76,5.87-1.81,12.49,1.12,17.89-2.27,4.68-2.94,7-9.91,7.09-16.47s-1.52-12.93-2.78-19.29a12.41,12.41,0,0,1-.25-5.1c.44-1.95,1.75-3.37,2.88-4.82a31.91,31.91,0,0,0,5.2-10.14c.92-3,1.54-6.34,3.42-8.53,2.07-2.42,5.12-2.8,7.94-3,5-.42,10.22-.73,15,1.25,8.37,3.47,13.95,13.18,21,19.79a36.92,36.92,0,0,0,16.23,9.05,11.64,11.64,0,0,0,5.46.32c2.25-.52,4.24-2.11,6.42-3,4.29-1.77,9.35-.95,13-4.33,1.21-1.12,2.2-2.68,3.61-3.35,2.44-1.15,5.06.74,7.21,2.6a44.54,44.54,0,0,1,9,9.65,22.28,22.28,0,0,1,3.66,13.76c-.41,4.46-2.44,8.39-4.5,12.06q-4.2,7.49-8.85,14.55c-2.67,4.05-5.5,8.05-9,10.87-4.77,3.79-10.46,5.16-16,6.7q-9.33,2.6-18.5,6.06c-5.67,2.15-11.44,4.66-15.9,9.55a12.73,12.73,0,0,0-3,5c-.38,1.33-.48,2.77-.86,4.1-1.41,5-6.22,7.23-10.47,7.27-5.95,0-11.64-2.75-17.16-5.5l-22.41-11.18a74.1,74.1,0,0,1-11.54-6.65,48.15,48.15,0,0,1-15.24-20.19" transform="translate(-314.83 -254.79)" style="fill:#969281"/><path d="M351.23,479.71a16.09,16.09,0,0,1,6.53-7.6c3.17-1.79,6.77-1.68,10.29-1.55,3.2.11,6.54.14,9.44-1.43a13.5,13.5,0,0,0,5.49-6.31c2.93-6.31,2.63-13.45,1.52-20.15-.68-4.08-1.95-8.15-2.35-12.27a7.88,7.88,0,0,1,1.58-5.64c1-1.33,2-2.56,2.91-3.95a35.51,35.51,0,0,0,4.16-9.63c1-3.64,2.11-7.51,6.05-8.9a18.4,18.4,0,0,1,4.72-.82c1.93-.16,3.87-.3,5.81-.29a21.79,21.79,0,0,1,11,2.6c5.69,3.25,9.73,8.77,14,13.61,4.56,5.2,9.66,9.74,16.09,12.47,3,1.26,6.55,2.57,9.83,2.17,3.49-.42,6.24-3.07,9.65-3.89,3-.71,6.14-.81,8.87-2.3a13.36,13.36,0,0,0,3.41-2.95c1.61-1.76,3.3-2.55,5.59-1.47a20.83,20.83,0,0,1,4.65,3.51c1.31,1.17,2.6,2.37,3.81,3.65a27.56,27.56,0,0,1,6.13,9.65,19.8,19.8,0,0,1,.66,11.55c-1,3.79-2.95,7.22-4.88,10.59s-4.08,6.94-6.24,10.33a83,83,0,0,1-6.76,9.54A26,26,0,0,1,474.5,487a62.27,62.27,0,0,1-10.24,3.45,187.76,187.76,0,0,0-22.62,7.6,41,41,0,0,0-8.93,4.89c-2.52,1.89-5.07,4.27-6.39,7.19a26.72,26.72,0,0,0-1.28,5.07,9.12,9.12,0,0,1-2.42,4.4,11.33,11.33,0,0,1-8,3c-4.08,0-8-1.38-11.73-3s-7.31-3.56-11-5.37c-7.38-3.69-14.93-7.16-22.15-11.15a45.64,45.64,0,0,1-15.87-14.32,53.59,53.59,0,0,1-5.06-9.37c-.18-.44-.91-.25-.72.2a50.7,50.7,0,0,0,11.55,17.16c5.74,5.47,13,8.71,20,12.21,7.65,3.81,15.22,7.92,23,11.38,5.72,2.53,13.16,4.85,18.88,1.06a10.35,10.35,0,0,0,4.42-7.15,13.69,13.69,0,0,1,1.94-5.48,21.32,21.32,0,0,1,3.94-4.22c5.94-5,13.87-7.47,21.12-9.9,4.05-1.36,8.14-2.57,12.26-3.71a55.21,55.21,0,0,0,10-3.49c6.84-3.38,11-9.74,15-16q3.39-5.28,6.5-10.72a45.83,45.83,0,0,0,4.84-10.35c2-7.11-.4-14.45-4.9-20.08a51.78,51.78,0,0,0-8-7.85c-2.27-1.82-5.21-3.41-7.83-1.31-1.45,1.15-2.4,2.76-4,3.75a14.22,14.22,0,0,1-4.95,1.71c-1.59.3-3.21.51-4.78.94a20.72,20.72,0,0,0-4.67,2.07,10.59,10.59,0,0,1-5.92,1.69,22.25,22.25,0,0,1-5.95-1.41,36.53,36.53,0,0,1-10.05-5.53c-5.66-4.36-9.73-10.29-14.65-15.39a32.38,32.38,0,0,0-7.31-5.94,21.91,21.91,0,0,0-10.11-2.61,42.63,42.63,0,0,0-10.64.78,8.82,8.82,0,0,0-6.39,5.47c-1.53,3.61-2.13,7.48-3.91,11a30.31,30.31,0,0,1-2.86,4.61,19.68,19.68,0,0,0-2.78,4.07c-1.45,3.44.12,7.67.83,11.12a73.36,73.36,0,0,1,1.8,12.85c.16,6.46-1.45,15.37-8,18.42-3.48,1.62-7.47,1-11.18,1a15.26,15.26,0,0,0-9.05,2.4,17.19,17.19,0,0,0-5.75,7.2c-.19.44.45.82.65.38Z" transform="translate(-314.83 -254.79)" style="fill:#baba74"/><path d="M519.3,510.79c6.25-14.3,19.09-24.51,27.94-37.35a19.05,19.05,0,0,0,2.83-5.39c1.35-4.63-.29-10.28,2.83-14,2.16-2.56,5.83-3.12,9.16-3.51s7.2-.59,9.44,1.9c2.84,3.16,1,8.14-1,11.91-2.39,4.55-4.82,9.17-8.38,12.88-2.65,2.75-5.85,4.93-8.48,7.7-3.63,3.83-6,8.65-9.26,12.82a40.08,40.08,0,0,1-27.23,15.14" transform="translate(-314.83 -254.79)" style="fill:#969281"/><path d="M519.63,511c4.59-10.39,12.55-18.61,19.86-27.11,3.52-4.09,7.42-8.39,9.91-13.21a17.5,17.5,0,0,0,1.68-7.47c.13-2.69,0-5.66,1.51-8s4.27-3.37,6.94-3.85a22.76,22.76,0,0,1,8.26-.38,5.66,5.66,0,0,1,4.79,6c-.12,2.71-1.36,5.27-2.59,7.63-2.88,5.51-5.94,10.7-10.69,14.84a69.85,69.85,0,0,0-6.49,5.92,58.83,58.83,0,0,0-5.08,7c-3.55,5.44-7.47,10.24-12.93,13.86a39.8,39.8,0,0,1-17.63,6.38c-.48.05-.48.8,0,.75a40.68,40.68,0,0,0,28.33-16.35c1.89-2.6,3.52-5.37,5.39-8a40.67,40.67,0,0,1,6.93-7.31,45,45,0,0,0,6.8-6.72,56.86,56.86,0,0,0,4.82-7.71c2.15-4,6-10.29,2.61-14.66A7.64,7.64,0,0,0,566.1,450a30.43,30.43,0,0,0-7.89.83,9.76,9.76,0,0,0-6.08,3.67c-1.46,2.16-1.63,4.86-1.74,7.38-.14,3.29-.37,6.28-2.06,9.19a62,62,0,0,1-5.47,7.63C534.56,489,524.43,498.26,519,510.6c-.19.44.45.82.65.38Z" transform="translate(-314.83 -254.79)" style="fill:#baba74"/><path d="M517.17,449c4,3.73,17-1.22,26-4.38a5.06,5.06,0,0,0,2.79-1.84,5.32,5.32,0,0,0,.61-2.26l.6-5a4.48,4.48,0,0,0-.19-2.52,3.49,3.49,0,0,0-1.82-1.51c-2.8-1.21-6.39-.85-8.48-3.07-1.37-1.45-1.68-3.63-3-5.16-1.8-2.14-5-2.41-7.75-2.53-2-.07-4.45.09-5.36,1.87-.76,1.47,0,3.21.39,4.81,1.27,5-3.86,9.73-5.78,13.12S513.12,445.3,517.17,449Z" transform="translate(-314.83 -254.79)" style="fill:#969281"/><path d="M516.9,449.3c1.87,1.63,4.64,1.57,7,1.31a53.45,53.45,0,0,0,10.49-2.52c1.86-.6,3.72-1.24,5.57-1.89a24.94,24.94,0,0,0,5.19-2c1.47-1,1.71-2.46,1.9-4.09.15-1.2.29-2.41.43-3.62a7.86,7.86,0,0,0,.06-3.13c-1-3.34-6.43-2.83-9-4-2.06-1-2.64-2.9-3.6-4.78a6.48,6.48,0,0,0-3.42-3.22,16.32,16.32,0,0,0-5.55-.91,8.16,8.16,0,0,0-4.42.74,3.49,3.49,0,0,0-1.6,3.55c.12,1,.51,2,.73,3a6.75,6.75,0,0,1-.12,3.22c-1.06,4-4.38,6.81-6.19,10.42a5.2,5.2,0,0,0-.72,3.62c.44,1.74,2,3.12,3.25,4.3.35.33.89-.2.53-.53-1.13-1.06-2.6-2.3-3-3.86a4.74,4.74,0,0,1,.75-3.42c1.4-2.65,3.5-4.84,4.94-7.47a11.09,11.09,0,0,0,1.43-4.1,12.26,12.26,0,0,0-.66-4.4c-.61-2.56.66-4,3.14-4.32a19.23,19.23,0,0,1,4.85.19,7,7,0,0,1,4.8,2.45c1,1.35,1.35,3.05,2.36,4.39,1.83,2.44,5,2.46,7.72,3.21a5.19,5.19,0,0,1,2.48,1.2c.94,1,.66,2.36.51,3.61L546.4,439a10.74,10.74,0,0,1-.61,3.35c-.84,1.75-3.34,2.2-5,2.8-1.54.54-3.07,1.08-4.61,1.6a72.85,72.85,0,0,1-10.64,2.92c-2.47.42-6,.95-8.08-.86C517.07,448.45,516.54,449,516.9,449.3Z" transform="translate(-314.83 -254.79)" style="fill:#baba74"/></g></g><ellipse cx="141.58" cy="184.13" rx="120.86" ry="82.79" style="fill:none"/></g><path d="M388.66,473.25c0-5.2-1.18-6.21-1.11-9.77a18.2,18.2,0,0,1,3.3-9.84,18.93,18.93,0,0,1,9.52-6.55,24.16,24.16,0,0,1,10.57-1.19c1.23.12,4,.76,9.54,2,4.15,1,4.72,1.15,6.07,1.13,2.7,0,3.88-.85,8.12-2.3,4.61-1.58,6.92-2.37,8.92-2.39,5.24-.05,9.22,3.12,10.92,4.48a21.35,21.35,0,0,1,6.78,9.41,20.35,20.35,0,0,1,.17,13.81,21.22,21.22,0,0,1-8.41,10.22,23.93,23.93,0,0,1-11,4.46c-4.44.52-5.25-.81-11.87-.44-3.83.22-6,.36-8.43,1.61-3.19,1.64-3.26,3.32-6.93,6.77-2.22,2.08-5.73,5.38-10.88,6.61-1.94.46-7.17,1.71-11.72-1.34-4.95-3.31-5.58-9.36-5.63-9.93-.26-3,.78-3.48,1.65-11A43.9,43.9,0,0,0,388.66,473.25Z" transform="translate(-314.83 -254.79)" style="fill:#f7f4ed"/><ellipse cx="107.71" cy="207.1" rx="16.04" ry="10.57" style="fill:#f4bd42"/><line x1="162.23" y1="304.17" x2="150.82" y2="289.08" style="fill:none;stroke:#111;stroke-miterlimit:10;stroke-width:0.5px"/><line x1="172.82" y1="305.15" x2="150.82" y2="276.04" style="fill:none;stroke:#111;stroke-miterlimit:10;stroke-width:0.5px"/><line x1="150.05" y1="284.38" x2="159.04" y2="277.56" style="fill:none;stroke:#111;stroke-miterlimit:10;stroke-width:0.5px"/><line x1="148.47" y1="131.91" x2="147.97" y2="111.18" style="fill:none;stroke:#4c4c4c;stroke-miterlimit:10"/><line x1="144.43" y1="131.75" x2="144.43" y2="125.09" style="fill:none;stroke:#4c4c4c;stroke-miterlimit:10"/><line x1="155.02" y1="280.97" x2="171.04" y2="302.34" style="fill:none;stroke:#ddd;stroke-miterlimit:10;stroke-width:0.25px"/><line x1="154.54" y1="280.24" x2="158.71" y2="277.4" style="fill:none;stroke:#ddd;stroke-miterlimit:10;stroke-width:0.25px"/><line x1="154.54" y1="280.24" x2="150.82" y2="276.04" style="fill:none;stroke:#ddd;stroke-miterlimit:10;stroke-width:0.25px"/><line x1="162.22" y1="303.95" x2="151.22" y2="288.97" style="fill:none;stroke:#ddd;stroke-miterlimit:10;stroke-width:0.25px"/><line x1="149.6" y1="135.12" x2="148.22" y2="111.18" style="fill:none;stroke:#ddd;stroke-miterlimit:10;stroke-width:0.25px"/><line x1="144.43" y1="131.75" x2="144.43" y2="125.09" style="fill:none;stroke:#ddd;stroke-miterlimit:10;stroke-width:0.25px"/></g></g><g id="Layer_4" data-name="Layer 4"><path d="M390.55,420.05l.69,6.73s10.58,9.7,11.64,10a112.17,112.17,0,0,1,13.52-5.31c.84-.27,4.84-1.54,10.24-2.78,6-1.38,7.28-1.25,14.42-2.91,4.43-1,4.45-1.2,5.81-1.26,3.73-.19,6.2.93,12.14,3.54,5,2.18,10,4.28,15,6.44,7.3,3.15,10.71,2.71,11.63,2.72,1.79,0,6.85-.89,13.41-4.61.74-.43,2.91-.82,7.46-6.32a4.68,4.68,0,0,0,1.07-4.46c-.36-3.91-4.32-6.43-5.88-7.43-22.49-14.34-86.1-5.31-86.1-5.31C406.75,410.34,390.55,420.05,390.55,420.05Z" transform="translate(-314.83 -254.79)" style="fill:#5b2828"/><g id="Layer_7" data-name="Layer 7"><g style="clip-path:url(#clip-path-5)"><path d="M404.2,433.7s11.77-6.83,24.53-8.34c7.19-.86,13.83-6.34,23.93-3.05,14.15,4.6,19,8.74,26.89,9.24,12,.76,15.94-1.65,18.9-3.67,4.18-2.84,7.23-3.84,9.17-6.06l-4.05-21c-7.07,4.56-17,9.28-25.53,5.81-2.69-1.09-3.35-2.22-6.07-4-10.14-6.78-22.48-5.4-32.37-4.3a86.09,86.09,0,0,0-30.85,9.86,102.72,102.72,0,0,0-18.2,11.89A29.39,29.39,0,0,0,404.2,433.7Z" transform="translate(-314.83 -254.79)" style="fill:#934a4a"/><path d="M402.44,432.27c1.43-3.22,5.24-5.39,8.16-7.12A57.28,57.28,0,0,1,421,420.44a149.52,149.52,0,0,1,22.5-5.51,35,35,0,0,1,13,0,79.81,79.81,0,0,1,12.12,3.47c7.58,2.77,14.76,7.33,22.95,8,9.41.82,18.31-3.64,26.47-7.73,1.72-.87.21-3.46-1.52-2.59-7.38,3.71-15.33,7.75-23.83,7.4-8.33-.35-15.83-5.31-23.49-8.09a77,77,0,0,0-12.37-3.48,37.81,37.81,0,0,0-12.91-.08c-4,.64-8,1.56-11.94,2.46-3.7.84-7.38,1.79-11,3a61.56,61.56,0,0,0-11.68,5.18,48.2,48.2,0,0,0-5.33,3.64,12.75,12.75,0,0,0-4.08,4.65c-.78,1.75,1.8,3.28,2.59,1.52Z" transform="translate(-314.83 -254.79)" style="fill:#ce9595"/><path d="M395,428c6.75-4.63,12.25-10.87,19.89-14.16a79.25,79.25,0,0,1,12-3.82,92.64,92.64,0,0,1,12.35-2.32,60.76,60.76,0,0,1,24.52,1.8c4,1.22,7.71,3.17,11.58,4.75a33,33,0,0,0,12.4,2.44,53.93,53.93,0,0,0,14.23-2.08c4.31-1.16,8.58-2.56,12.15-5.32a1.52,1.52,0,0,0,0-2.12,1.54,1.54,0,0,0-2.12,0c-3.18,2.46-7.23,3.59-11.05,4.61a52.05,52.05,0,0,1-12.52,1.91,31.17,31.17,0,0,1-12.29-2.33c-3.94-1.61-7.69-3.59-11.79-4.82a62.31,62.31,0,0,0-24-2,97,97,0,0,0-24.23,5.58,44.23,44.23,0,0,0-11.88,6.7c-3.61,2.81-6.94,6-10.72,8.55-1.58,1.08-.08,3.68,1.52,2.59Z" transform="translate(-314.83 -254.79)" style="fill:#d3a1a1"/></g></g></g><g id="Layer_10" data-name="Layer 10"><circle cx="165.04" cy="190.19" r="2.01" style="fill:#f4edd3"/><circle cx="169.28" cy="191.2" r="1.01" style="fill:#f4edd3"/><circle cx="168.29" cy="186.66" r="0.38" style="fill:#f4edd3"/><circle cx="168.72" cy="194.99" r="0.56" style="fill:#f4edd3"/><circle cx="163.48" cy="196.59" r="2.16" style="fill:#f4edd3"/><circle cx="162.18" cy="144.37" r="0.85" style="fill:#f4edd3"/><circle cx="164.19" cy="146.67" r="1.45" style="fill:#f4edd3"/><circle cx="164.42" cy="143.22" r="0.63" style="fill:#f4edd3"/><circle cx="166.63" cy="144.79" r="0.43" style="fill:#f4edd3"/><ellipse cx="126.62" cy="171.15" rx="1.75" ry="1.47" style="fill:#f4edd3"/><ellipse cx="107.04" cy="137.26" rx="0.67" ry="2.37" style="fill:#f4edd3"/><circle cx="110.71" cy="140.6" r="0.98" style="fill:#f4edd3"/><circle cx="112.35" cy="136.88" r="0.66" style="fill:#f4edd3"/><circle cx="56.85" cy="185.31" r="2.87" style="fill:#f4edd3"/><circle cx="58.79" cy="179.85" r="0.94" style="fill:#f4edd3"/><circle cx="55.61" cy="177.66" r="1.25" style="fill:#f4edd3"/><circle cx="59.87" cy="176.57" r="0.15" style="fill:#f4edd3"/><circle cx="61.53" cy="183.29" r="0.85" style="fill:#f4edd3"/><circle cx="147.38" cy="254.3" r="1.53" style="fill:#f4edd3"/><circle cx="212" cy="212.26" r="1.45" style="fill:#f4edd3"/><circle cx="215.08" cy="207.78" r="0.68" style="fill:#f4edd3"/><circle cx="209.82" cy="204.7" r="0.73" style="fill:#f4edd3"/><circle cx="219.3" cy="211.53" r="0.73" style="fill:#f4edd3"/></g><g id="Layer_11" data-name="Layer 11"><g style="clip-path:url(#clip-path-6)"><path d="M353.55,519.2A124,124,0,0,0,392.61,548c21.79,10.18,40.84,11.2,53.86,11.76,23.39,1,41.26-3.2,56.13-6.83a250.64,250.64,0,0,0,37.93-12.51c11.86-12.72,26.47-32.39,34.52-59.17,2.81-9.38,6.51-22.11,5.31-39.06a104.06,104.06,0,0,0-13.28-42.48c-6.79-12-13.76-18.73-26.55-31.1-4.76-4.61-9-8.23-15.17-11-5.06-2.27-9.56-3.13-19-4.18-11.78-1.3-17.67-1.95-28.45-2.06a291.37,291.37,0,0,0-50.82,3.2,280.37,280.37,0,0,0-36.41,8.73,68.75,68.75,0,0,0-9.87,3.79c-8,3.82-12.78,8.14-20.1,14.79-15.08,13.71-22.66,20.63-24.65,23.89a63.77,63.77,0,0,0-8,21.62c-3,14.92-.82,26.87.75,34.9,2.14,10.93,5.4,18.58,9.11,27.31A203.7,203.7,0,0,0,353.55,519.2Z" transform="translate(-314.83 -254.79)" style="opacity:0.48;fill:url(#linear-gradient-4)"/></g></g></svg>