<svg xmlns="http://www.w3.org/2000/svg" xmlns:xlink="http://www.w3.org/1999/xlink" viewBox="0 0 305 331"><defs><linearGradient id="linear-gradient" x1="51.45" y1="259.87" x2="242.61" y2="81.35" gradientUnits="userSpaceOnUse"><stop offset="0" stop-color="#fe28be"/><stop offset="1" stop-color="#de10fe"/></linearGradient></defs><g id="Layer_7" data-name="Layer 7"><rect width="305" height="331" rx="55.73" style="fill:url(#linear-gradient)"/></g><g id="Layer_2" data-name="Layer 2"><path d="M358.5,647.5" transform="translate(-185 -352)" style="fill:none;stroke:#000;stroke-miterlimit:10"/><path d="M448,622" transform="translate(-185 -352)" style="fill:#33bc9c"/><path d="M405.1,597.6c-15.24,15.7-29.57,34.21-34.36,55.84-2.12,10.1-.12,21.43,12,22.52,14,1,28.1-7.13,39.63-14.55,21.13-14.55,39.61-33.58,52.3-56,6.87-12.14,17.74-39.29-3.29-42.7-23-2-50.48,19.28-66.24,34.85Zm-2.7-2.7c15.87-15.56,35.58-31,57.57-36.37,13.23-3.19,27.15.59,29.14,16,2.32,25.14-19.68,53.77-36.38,70.73-16.94,16.7-45.63,38.72-70.74,36.39-15.35-2-19.15-15.85-16-29.14,5.39-22,20.8-41.69,36.37-57.57Z" transform="translate(-185 -352)" style="fill:#f1e4f2"/><ellipse cx="423.54" cy="612.39" rx="40.73" ry="15.55" transform="translate(-499.13 159.12) rotate(-47.51)" style="fill:#f1e4f2"/></g><g id="Layer_4" data-name="Layer 4"><polygon points="90.77 191.73 54.8 172.15 186.18 62.9 222.09 185.27 90.77 191.73" style="fill:#49e8c9"/></g><g id="Layer_3" data-name="Layer 3"><path d="M406.91,521l2.78,3.3a9.05,9.05,0,0,1,1.93,4l16.25,81.42a4.52,4.52,0,0,1-1.48,4.55h0a12.93,12.93,0,0,1-14.24,1.63l-146.67-75.8a.39.39,0,0,1-.21-.3l-.25-2.53a.38.38,0,0,1,.34-.42l141.06-16.07A.54.54,0,0,1,406.91,521Z" transform="translate(-185 -352)" style="fill:#4fbaba"/></g><g id="Layer_5" data-name="Layer 5"><path d="M312.79,502.71a1.69,1.69,0,0,1,2.12-1.64,34.23,34.23,0,0,0,8.43,1.06c7.83,0,12.81-4.93,14.83-6.63,7.91-6.66,9.71-16.7,10.12-19,.72-4-1-8.31-2.81-12.8-.87-2.21-2.11-5.22-2.11-5.22a83.25,83.25,0,0,0,9.06,4.05,29.16,29.16,0,0,0,8.59,2.12,22.32,22.32,0,0,0,10.75-2A19.3,19.3,0,0,0,381.83,453c.59-1.33,3-6.87.91-12.42a36.56,36.56,0,0,0-5-8.63s2.5-1.73,5.51-4.1c.4-.32,4.93-4.51,4.54-10.18-.34-5-3.83-7.88-6.42-9.75a9,9,0,0,0-7.63-1.79c-5.19.81-9.5,5.68-9.5,5.68a98.39,98.39,0,0,0-.43-11.3c-.54-5-.17-14.14-9.86-21.86-3.36-4.25-9.26-9.62-16.94-15-4.25-3-18.18-8.32-33.39-10.56-18.81-2.78-33.68,3-46.83,9-9.41,4.27-33.69,16.72-49.77,40.61-9.13,13.59-13.53,23-16.73,32.71-3.52,10.64-7.05,25.69-3.45,47.19,2.31,13.75,8.74,24.82,16.41,31.69,12.65,11.33,34,13.46,34,13.46a23.72,23.72,0,0,0-5.49,7c-.92,1.62-2.49,4.82-1,10.53,1.8,6.67,8,8.18,9.64,8.88a14.13,14.13,0,0,0,11.46-3.25,54.14,54.14,0,0,0,7.32-7.75s7.19,1.69,13.15-.54c5.66-2.13,4.93-6.88,10-8.37,1.88-.56,2.89-.6,7.57-.74,9.74-.3,11.81-.86,14.38-.79,13.55.35,32.75,17.95,37.42,34.45a19.17,19.17,0,0,0,5.56,9.32c4.11,3.54,10.49,1.69,11.82.57.75-.63,7.8-4.2,1.48-11.73-1.69-2-2.19-1.88-5.65-3.48,0,0-.53-.19-5.14-2.62-24.48-12.94-33-34.63-33-34.63A57.31,57.31,0,0,1,312.79,502.71Z" transform="translate(-185 -352)" style="fill:#f9f9f9"/><path d="M477.6,482.1" transform="translate(-185 -352)" style="fill:#c64ba9"/></g></svg>