<svg xmlns="http://www.w3.org/2000/svg" viewBox="0 0 404.12 41.57"><g id="Layer_1" data-name="Layer 1"><path d="M49.52,55.93a1.81,1.81,0,0,1-1.61.66A3,3,0,0,1,46,56a5.12,5.12,0,0,1-1.33-1.61,7.9,7.9,0,0,1-1.05-3.83A19.21,19.21,0,0,1,44,46.58a42,42,0,0,1,1.16-4.24c.49-1.48,1.05-3,1.7-4.56s1.34-3.07,2.07-4.55a72.33,72.33,0,0,1,4.46-8h-.26a10.69,10.69,0,0,0-5.05,1.24A1.8,1.8,0,0,1,47,26.9a3,3,0,0,1-2.13-1.07c-1.58-1.68-.64-3.06,2.83-4.16a13.62,13.62,0,0,1,4-.8,5.32,5.32,0,0,1,2.41.47,5.85,5.85,0,0,1,1.55,1.11,6.46,6.46,0,0,1,1.43,2,4.5,4.5,0,0,1,.43,1.72,6.23,6.23,0,0,1-.45,2c-.3.83-.68,1.72-1.13,2.66l-1.56,3c-.55,1.05-1.09,2.16-1.64,3.31L51,40.62c-.55,1.16-1,2.28-1.46,3.38a18.22,18.22,0,0,0-1.4,6.24,9.72,9.72,0,0,0,.28,2.45l2.4-4Q58.17,36.89,65.29,31a19.79,19.79,0,0,1,4-2.65,1.67,1.67,0,0,1,.76-.16,4.38,4.38,0,0,1,.92.1,4.07,4.07,0,0,1,.93.31c.67.32,1,.71,1,1.16a.91.91,0,0,1-.22.6l-.81.87Q67.29,36,65.71,44.71A24,24,0,0,0,65.2,49a16.54,16.54,0,0,0,.09,2.14,3.57,3.57,0,0,0,.37,1.07,2,2,0,0,0,1.85,1.14,5.37,5.37,0,0,0,2.74-.91,15.59,15.59,0,0,0,3.06-2.51,28,28,0,0,0,3-3.77,31.29,31.29,0,0,0,2.57-4.62,24.94,24.94,0,0,0,2.52-10.43,11.79,11.79,0,0,0-1.7-6.47c-.3-.45,0-1.05.9-1.78a4.68,4.68,0,0,1,3.08-1.14q2.27,0,3.06,4A17.22,17.22,0,0,1,87,29.17a23.93,23.93,0,0,1-.53,4.73,31.61,31.61,0,0,1-1.47,5,34.58,34.58,0,0,1-2.24,4.72A35.34,35.34,0,0,1,80,47.89a31.08,31.08,0,0,1-3.25,3.57,23.5,23.5,0,0,1-3.5,2.76,12.81,12.81,0,0,1-7,2.42,4.94,4.94,0,0,1-4.5-2.38A9.59,9.59,0,0,1,60.43,49a26.62,26.62,0,0,1,2-10.22c-1.26,1.42-2.5,2.88-3.7,4.39q-4.48,5.85-6.24,8.39Z" transform="translate(-43.58 -17.88)" style="fill:#fff"/><path d="M102.55,37.07q-1.26,0-4.5,3.85l-1.9,2.33L92.5,48c-.89,1.68-1.58,3.07-2.08,4.19l-1.24,2.65a7.09,7.09,0,0,1-.83,1.38,1.22,1.22,0,0,1-1,.4,3.08,3.08,0,0,1-1.17-.22,3.29,3.29,0,0,1-1-.56,2.08,2.08,0,0,1-.87-1.6,4.2,4.2,0,0,1,.48-1.34l.92-1.86a120.57,120.57,0,0,0,7.74-22.31,85.36,85.36,0,0,0,1.86-9c.16-1.28.79-1.91,1.87-1.91a2.84,2.84,0,0,1,1.74.5,2.56,2.56,0,0,1,1.28,2.1A17,17,0,0,1,100,23c-.19.92-.42,1.93-.71,3s-.62,2.24-1,3.44q-1.52,4.6-2.24,6.63-2.25,6.15-2.77,7.2c.23-.27.53-.65.89-1.12,2.77-3.64,4.49-5.82,5.14-6.52A20.39,20.39,0,0,1,101,34a5.36,5.36,0,0,1,3.66-1.26,3.84,3.84,0,0,1,3.93,3.77,9.12,9.12,0,0,1-.31,2.49,17.8,17.8,0,0,1-.79,2.25c-.32.76-.67,1.54-1,2.35L105.25,46a15.27,15.27,0,0,0-1.6,5.4c0,.82.33,1.23,1,1.23a3.72,3.72,0,0,0,1.74-.41,3.37,3.37,0,0,1,1-.41.42.42,0,0,1,.48.48,4,4,0,0,1-2.06,3.4,4.73,4.73,0,0,1-2.58.94,6.54,6.54,0,0,1-1.93-.24,3.53,3.53,0,0,1-1.36-.79A4.66,4.66,0,0,1,98.62,52a17.09,17.09,0,0,1,1.69-6.49l2.47-5.26a5.87,5.87,0,0,0,.71-2.31C103.49,37.36,103.18,37.07,102.55,37.07Z" transform="translate(-43.58 -17.88)" style="fill:#fff"/><path d="M129.68,50.33c0,1.4.5,2.11,1.49,2.11a3.87,3.87,0,0,0,1.7-.33,2.91,2.91,0,0,1,.9-.32c.33,0,.48.17.48.51a4.06,4.06,0,0,1-2.05,3.38,4.81,4.81,0,0,1-4.44.73,3.69,3.69,0,0,1-2.19-2.26,4.53,4.53,0,0,1-.34-1.62,14.14,14.14,0,0,1,.23-2.52,12.7,12.7,0,0,1-5.29,6,5.72,5.72,0,0,1-2.67.64,5,5,0,0,1-2.46-.58,5.53,5.53,0,0,1-1.77-1.61,8.63,8.63,0,0,1-1.35-5.4,17,17,0,0,1,2.4-8,18.74,18.74,0,0,1,5.26-6,10.21,10.21,0,0,1,5.94-2.36A5.15,5.15,0,0,1,130,35.29c1.05-1.69,2-2.54,2.79-2.54a3.39,3.39,0,0,1,2,.48c.84.61,1.14,1.15.9,1.6q-5.74,11.76-5.9,14.63A8.14,8.14,0,0,0,129.68,50.33ZM117,50.42c0,1.83.58,2.75,1.76,2.75.9,0,2-.77,3.31-2.29a31.44,31.44,0,0,0,5.1-9.05,33.19,33.19,0,0,0,1.19-3.57,2.69,2.69,0,0,0-1.3-2.28,2.41,2.41,0,0,0-1.23-.25,4,4,0,0,0-1.89.59,9.38,9.38,0,0,0-2.11,1.62,13.71,13.71,0,0,0-1.89,2.44,18.55,18.55,0,0,0-1.55,3A18.88,18.88,0,0,0,117,50.42Z" transform="translate(-43.58 -17.88)" style="fill:#fff"/><path d="M150.69,50.42c.44,0,.66.3.66.89a2.69,2.69,0,0,1-.45,1.47,6.5,6.5,0,0,1-2.47,2.51,7.78,7.78,0,0,1-4.23,1.35q-3.69,0-4.66-3.29-1.17-3.91,3.49-16.57c-1.75-.15-2.7-.46-2.86-.92a1.51,1.51,0,0,1-.06-.44,1.06,1.06,0,0,1,.21-.56,3.21,3.21,0,0,1,.56-.62,2.57,2.57,0,0,1,1.63-.66h1.8q2.48-5.79,3.52-6.58a1.84,1.84,0,0,1,1.12-.37,2.79,2.79,0,0,1,1,.16,2.32,2.32,0,0,1,.73.46,2,2,0,0,1,.73,1.53,2.63,2.63,0,0,1-.27,1l-1.69,3.68H150l2.28,0,1.31,0,1.08,0c.44,0,.65.16.65.48,0,2-2.37,3-7.13,3H148l-1.56,4q-2.62,7.13-2.63,10a1.91,1.91,0,0,0,.37,1.24,1.69,1.69,0,0,0,1.37.45,4.7,4.7,0,0,0,1.83-.34,8.08,8.08,0,0,0,1.44-.77c.41-.28.77-.53,1.06-.76A1.38,1.38,0,0,1,150.69,50.42Z" transform="translate(-43.58 -17.88)" style="fill:#fff"/><path d="M163.43,28.7a7.06,7.06,0,0,1-1.54.91,4.06,4.06,0,0,1-1.6.33c-.55,0-.85-.17-.91-.52s.09-.47.38-.8l1-1c1.28-1.31,1.92-2.47,1.92-3.47a4.31,4.31,0,0,0-.57-2.3c-.39-.62-.64-1.05-.77-1.31a1.26,1.26,0,0,1,.08-1,2.42,2.42,0,0,1,1.09-1.14,4,4,0,0,1,2.09-.47,2.31,2.31,0,0,1,2,1.13,4.41,4.41,0,0,1,.76,2.5,7.1,7.1,0,0,1-.34,2.32,9.87,9.87,0,0,1-2.12,3.51A11.69,11.69,0,0,1,163.43,28.7Z" transform="translate(-43.58 -17.88)" style="fill:#fff"/><path d="M165.64,52.39a2.78,2.78,0,0,1,.31-1.31,3.32,3.32,0,0,1,.76-1,2.91,2.91,0,0,1,2-.89.82.82,0,0,1,.92.93,3.54,3.54,0,0,0,1.57,3.32,2.29,2.29,0,0,0,1.19.34,3.63,3.63,0,0,0,1.06-.14,2.35,2.35,0,0,0,.79-.43,2,2,0,0,0,.83-1.58,3.54,3.54,0,0,0-.41-1.68,14.74,14.74,0,0,0-1-1.61l-1.31-1.83c-1.82-2.44-2.74-4.68-2.74-6.74a6.33,6.33,0,0,1,2.17-4.64,8.82,8.82,0,0,1,6.34-2.36,7.76,7.76,0,0,1,5.28,1.67,4,4,0,0,1,1.55,3.09,3.49,3.49,0,0,1-1.37,2.88,3,3,0,0,1-2.47.71,1.33,1.33,0,0,1-.85-.56,1.17,1.17,0,0,1-.11-1,3.94,3.94,0,0,0,.18-1.19,2.7,2.7,0,0,0-.23-1.14,2.57,2.57,0,0,0-.61-.89,2.43,2.43,0,0,0-1.68-.76,4.63,4.63,0,0,0-1.46.2,3,3,0,0,0-1,.56,2.62,2.62,0,0,0-.89,2,4.87,4.87,0,0,0,.41,2.07,11.24,11.24,0,0,0,1,1.74c.4.58.84,1.16,1.31,1.76a17.32,17.32,0,0,1,1.3,1.87,8,8,0,0,1,1.44,4.06,5.41,5.41,0,0,1-.73,2.92,7.18,7.18,0,0,1-1.9,2,9.14,9.14,0,0,1-5.57,1.85,7,7,0,0,1-4.66-1.42A3.55,3.55,0,0,1,165.64,52.39Z" transform="translate(-43.58 -17.88)" style="fill:#fff"/><path d="M221.16,41.44c-.44,0-.9,0-1.38-.08s-1.05-.06-1.71-.08a42.55,42.55,0,0,0-4.66.18,36,36,0,0,1-1.89,4.84,38.56,38.56,0,0,1-2.59,4.85q-2.75,4.26-5.58,5.26a2.19,2.19,0,0,1-.83.16,1.92,1.92,0,0,1-.77-.15,1.81,1.81,0,0,1-.57-.37,1.28,1.28,0,0,1-.48-1,.9.9,0,0,1,.34-.78q3.26-2.36,6.68-11.86l-.5.13c-.17.05-.32.09-.44.14a1.09,1.09,0,0,1-.42.07,1.16,1.16,0,0,1-.53-.15,2.7,2.7,0,0,1-.51-.35,1.28,1.28,0,0,1-.51-.89,1.12,1.12,0,0,1,.41-.82,5.07,5.07,0,0,1,1-.72A15.09,15.09,0,0,1,209,38.67l1.23-3.84q2.17-6.73,4.16-9.34c-1.25-.11-2.17-.16-2.77-.16a7.57,7.57,0,0,0-3.88.75,4.71,4.71,0,0,0-1.64,1.63,4.05,4.05,0,0,0-.49,1.23.94.94,0,0,1-.41.81,1.92,1.92,0,0,1-.83.17,1.87,1.87,0,0,1-1-.35,3,3,0,0,1-.87-.91,3.66,3.66,0,0,1-.57-2.52,4.91,4.91,0,0,1,.92-2.43,6.63,6.63,0,0,1,1.82-1.65,7.77,7.77,0,0,1,4.11-1.19,35.44,35.44,0,0,1,4.09.22c1.28.14,2.57.31,3.85.49q5.1.68,6.49.68a9.54,9.54,0,0,0,2.07-.16,3.24,3.24,0,0,0,1.15-.48c.32-.21.55-.35.68-.42a1.42,1.42,0,0,1,.63-.1c.45,0,.65.34.59,1a4.48,4.48,0,0,1-.5,1.78,3.75,3.75,0,0,1-1.08,1.22,5.64,5.64,0,0,1-3.43,1c-1.38,0-3.07-.1-5.05-.28a23.6,23.6,0,0,0-1.44,4l-2.1,7.54a22.61,22.61,0,0,1,3.28-.35,6.45,6.45,0,0,1,1.86.23,5,5,0,0,1,1.31.64,2.57,2.57,0,0,1,1.3,2.2C222.42,41,222,41.44,221.16,41.44Z" transform="translate(-43.58 -17.88)" style="fill:#fff"/><path d="M254.05,55.86a2.9,2.9,0,0,1-.73-.76,1.76,1.76,0,0,1-.3-.73,2.12,2.12,0,0,1,.13-.76c.1-.3.23-.66.4-1.08q4.67-11.47,4.66-15.41a1.89,1.89,0,0,0-.75-1.55l-.46-.32a.71.71,0,0,1-.22-.56,1.13,1.13,0,0,1,.29-.77,2.6,2.6,0,0,1,.77-.64,4.27,4.27,0,0,1,2-.53,4.64,4.64,0,0,1,1.62.23,3.09,3.09,0,0,1,1,.62,2.42,2.42,0,0,1,.88,1.74,7.88,7.88,0,0,1-.2,1.85c-.15.62-.32,1.24-.52,1.84s-.39,1.17-.59,1.71a11,11,0,0,0-.39,1.2,3.37,3.37,0,0,0-.14,1,2,2,0,0,0,.67-.94l.89-1.69q3-5.35,5.8-7.09a4,4,0,0,1,2-.48,2.35,2.35,0,0,1,1.86.82,2.83,2.83,0,0,1,.75,1.79,6.07,6.07,0,0,1-.14,1.64,4.85,4.85,0,0,1-.51,1.22A2.18,2.18,0,0,1,271,39.5a.84.84,0,0,1-.55-.21l-.5-.43a2.29,2.29,0,0,0-1.46-.67,2.82,2.82,0,0,0-1.69.92,17.49,17.49,0,0,0-2.07,2.35,43.92,43.92,0,0,0-5.89,10.7l-1,2.65a7.77,7.77,0,0,1-.68,1.41,1,1,0,0,1-.88.42,3.23,3.23,0,0,1-1.17-.22A3.84,3.84,0,0,1,254.05,55.86Z" transform="translate(-43.58 -17.88)" style="fill:#fff"/><path d="M288,51a37,37,0,0,1,.88-4.1c.44-1.75,1-3.61,1.72-5.59a62.88,62.88,0,0,1,5.69-12.14,1.71,1.71,0,0,1,1.17-.85,13.4,13.4,0,0,1,1.77-.13,4.8,4.8,0,0,1,1.37.17,2.71,2.71,0,0,1,.95.44A.81.81,0,0,1,301.8,30a66.46,66.46,0,0,0-7.22,15.23,36.7,36.7,0,0,0-1.4,4.76c-.15.9-.26,1.5-.33,1.83a4.21,4.21,0,0,0-.1.86q0,.75,1,.75a6.38,6.38,0,0,0,2.15-.44,17.15,17.15,0,0,0,2.56-1.26,25.46,25.46,0,0,0,2.84-2,30.14,30.14,0,0,0,2.89-2.61A30.45,30.45,0,0,0,306.83,44,23.62,23.62,0,0,0,309,40.46a17.88,17.88,0,0,0,2.08-8.12c0-3.65-1.48-6.08-4.46-7.29a8.66,8.66,0,0,0-3.23-.61,16.45,16.45,0,0,0-2.85.21,15.08,15.08,0,0,0-2.24.61,11.25,11.25,0,0,0-3.65,2.08,1.84,1.84,0,0,1-.94.23,2.65,2.65,0,0,1-1.18-.32,5,5,0,0,1-1.13-.8,2.33,2.33,0,0,1-.91-2.15c.16-1,1.63-1.82,4.39-2.54a28.15,28.15,0,0,1,7-.89,19.59,19.59,0,0,1,6.34,1,12.82,12.82,0,0,1,4.59,2.58,10.69,10.69,0,0,1,3.29,8.21,21.74,21.74,0,0,1-4.71,13.14,29,29,0,0,1-10.29,8.91,15.7,15.7,0,0,1-7.11,2,6.65,6.65,0,0,1-4.36-1.49A4.24,4.24,0,0,1,288,51Z" transform="translate(-43.58 -17.88)" style="fill:#fff"/><path d="M324.59,52.14c.39,0,.59.26.59.78a3.3,3.3,0,0,1-.94,2.12,4.58,4.58,0,0,1-3.68,1.6,3.64,3.64,0,0,1-3.63-2.15,4.2,4.2,0,0,1-.37-1.83,8.87,8.87,0,0,1,.38-2.39c.25-.87.56-1.79.94-2.76s.78-1.95,1.22-2.94l1.21-2.88a14.83,14.83,0,0,0,1.33-4.25,2.72,2.72,0,0,0-.22-1.36,1.8,1.8,0,0,0-.47-.51l-.45-.32a.63.63,0,0,1-.23-.56,1.15,1.15,0,0,1,.31-.77,2.67,2.67,0,0,1,.81-.64,5.18,5.18,0,0,1,2.4-.53q3.36,0,3.36,1.77a12.6,12.6,0,0,1-1.08,4.69q-1.06,2.64-1.83,4.27l-1.37,3.15a15,15,0,0,0-1.51,5,.89.89,0,0,0,1,1,3.45,3.45,0,0,0,1.49-.25A1.82,1.82,0,0,1,324.59,52.14Zm4.68-24.74a4.18,4.18,0,0,1-1.14.86,3.84,3.84,0,0,1-1.35.41,2.37,2.37,0,0,1-1.34-.21,3.07,3.07,0,0,1-1.08-.85,3.51,3.51,0,0,1-1-2.31,3.3,3.3,0,0,1,.37-1.75,3.15,3.15,0,0,1,.95-.94,3.79,3.79,0,0,1,2.07-.71,6.58,6.58,0,0,1,1.51.13,3.2,3.2,0,0,1,1,.46,2.19,2.19,0,0,1,1.12,1.84,4.52,4.52,0,0,1-.31,1.81A4.13,4.13,0,0,1,329.27,27.4Z" transform="translate(-43.58 -17.88)" style="fill:#fff"/><path d="M346.8,37.07c-.47,0-1.14.46-2,1.37s-1.62,1.73-2.26,2.48l-1.94,2.33L336.84,48c-.89,1.68-1.58,3.07-2.08,4.19l-1.24,2.65a6.62,6.62,0,0,1-.83,1.38,1.22,1.22,0,0,1-1,.4,3.15,3.15,0,0,1-1.17-.22,3.42,3.42,0,0,1-1-.56,2.08,2.08,0,0,1-.87-1.6,4,4,0,0,1,.51-1.34l.87-1.86c.27-.54.59-1.25,1-2.1l1.28-3.13Q335,39.08,335,37.12a1.8,1.8,0,0,0-.68-1.55l-.46-.32a.66.66,0,0,1-.23-.56,1.15,1.15,0,0,1,.31-.77,2.94,2.94,0,0,1,.81-.64,4.83,4.83,0,0,1,3.68-.3,2.94,2.94,0,0,1,1,.62,2.33,2.33,0,0,1,.85,1.67,7.56,7.56,0,0,1-.22,1.75c-.15.58-.33,1.18-.55,1.78s-.45,1.19-.7,1.77-.46,1.08-.66,1.51l-.46,1c-.12.25-.15.32-.09.23,1.69-2.34,2.81-3.85,3.34-4.52l1.6-1.92a15.16,15.16,0,0,1,2.77-2.72,6.43,6.43,0,0,1,3.2-1.38,5.61,5.61,0,0,1,2,.3,4.1,4.1,0,0,1,1.39.85,3.86,3.86,0,0,1,1.26,3,9.73,9.73,0,0,1-.82,3.77c-.55,1.31-1,2.37-1.43,3.19s-.79,1.64-1.15,2.48A15.76,15.76,0,0,0,348,51.86c0,.52.41.78,1.24.78a3.79,3.79,0,0,0,1.75-.41,3.26,3.26,0,0,1,1-.41.42.42,0,0,1,.48.48,4,4,0,0,1-2.08,3.4,4.65,4.65,0,0,1-2.56.94,6.24,6.24,0,0,1-1.93-.25,3.68,3.68,0,0,1-1.36-.8,4.32,4.32,0,0,1-1.35-3.38,18,18,0,0,1,1.67-6.63c.81-1.82,1.38-3.06,1.72-3.73l.77-1.62a5.87,5.87,0,0,0,.71-2.31C348.06,37.36,347.64,37.07,346.8,37.07Z" transform="translate(-43.58 -17.88)" style="fill:#fff"/><path d="M373.07,37.07c-.48,0-1.15.46-2,1.37s-1.63,1.73-2.27,2.48l-1.94,2.33L363.1,48c-.88,1.68-1.58,3.07-2.08,4.19l-1.23,2.65a6.56,6.56,0,0,1-.84,1.38,1.19,1.19,0,0,1-1,.4,3.07,3.07,0,0,1-1.16-.22,3.17,3.17,0,0,1-1-.56,2.08,2.08,0,0,1-.87-1.6,3.92,3.92,0,0,1,.5-1.34l.87-1.86c.27-.54.59-1.25,1-2.1l1.28-3.13q2.7-6.75,2.7-8.71a1.78,1.78,0,0,0-.69-1.55l-.46-.32a.66.66,0,0,1-.23-.56,1.2,1.2,0,0,1,.31-.77,2.94,2.94,0,0,1,.81-.64,4.83,4.83,0,0,1,3.68-.3,2.84,2.84,0,0,1,1,.62,2.29,2.29,0,0,1,.85,1.67,7.05,7.05,0,0,1-.22,1.75,14.46,14.46,0,0,1-.55,1.78q-.33.9-.69,1.77c-.25.58-.47,1.08-.67,1.51l-.45,1c-.12.25-.16.32-.09.23q2.53-3.51,3.33-4.52l1.6-1.92a15.84,15.84,0,0,1,2.77-2.72,6.46,6.46,0,0,1,3.2-1.38,5.57,5.57,0,0,1,2,.3,4.14,4.14,0,0,1,1.4.85,3.86,3.86,0,0,1,1.26,3,9.75,9.75,0,0,1-.83,3.77c-.55,1.31-1,2.37-1.43,3.19s-.78,1.64-1.15,2.48a15.9,15.9,0,0,0-1.71,5.55q0,.78,1.23.78a3.79,3.79,0,0,0,1.75-.41,3.19,3.19,0,0,1,1-.41.42.42,0,0,1,.48.48,4,4,0,0,1-2.08,3.4,4.68,4.68,0,0,1-2.56.94,6.26,6.26,0,0,1-1.94-.25,3.68,3.68,0,0,1-1.36-.8,4.35,4.35,0,0,1-1.34-3.38,17.93,17.93,0,0,1,1.66-6.63c.81-1.82,1.38-3.06,1.72-3.73l.78-1.62a5.82,5.82,0,0,0,.7-2.31C374.32,37.36,373.91,37.07,373.07,37.07Z" transform="translate(-43.58 -17.88)" style="fill:#fff"/><path d="M383.08,48.41a14.9,14.9,0,0,1,.66-3.8,18.21,18.21,0,0,1,1.53-3.52,20.78,20.78,0,0,1,2.25-3.23,18,18,0,0,1,2.8-2.66,11,11,0,0,1,6.61-2.45c2.61,0,4.34,1.08,5.21,3.23a6.42,6.42,0,0,1,.44,2.59,7.22,7.22,0,0,1-.58,2.77,8,8,0,0,1-1.52,2.31,11,11,0,0,1-2.3,1.86,16,16,0,0,1-2.92,1.39,21.34,21.34,0,0,1-6.95,1.19,4.21,4.21,0,0,0-.11,1,5.71,5.71,0,0,0,.14,1.43,4,4,0,0,0,.54,1.41,2.63,2.63,0,0,0,2.38,1.37,9.7,9.7,0,0,0,5.17-1.56,7.7,7.7,0,0,0,1.45-1.08,1.5,1.5,0,0,1,1-.56.87.87,0,0,1,.72.49,2,2,0,0,1,.31,1.11,3.31,3.31,0,0,1-.69,2.1c-1.92,1.92-4.77,2.88-8.57,2.88a7.32,7.32,0,0,1-5.39-2A8,8,0,0,1,383.08,48.41Zm13.35-12.62q-2.4,0-4.62,3.3a24.74,24.74,0,0,0-3,6.72,11.11,11.11,0,0,0,6.63-3c1.72-1.65,2.58-3.22,2.58-4.73S397.48,35.79,396.43,35.79Z" transform="translate(-43.58 -17.88)" style="fill:#fff"/><path d="M405,55.86a3.07,3.07,0,0,1-.73-.76,1.76,1.76,0,0,1-.3-.73,2.12,2.12,0,0,1,.13-.76c.1-.3.23-.66.4-1.08q4.67-11.47,4.66-15.41a1.87,1.87,0,0,0-.75-1.55l-.46-.32a.71.71,0,0,1-.22-.56,1.18,1.18,0,0,1,.29-.77,2.79,2.79,0,0,1,.78-.64,4.2,4.2,0,0,1,2-.53,4.64,4.64,0,0,1,1.62.23,3.25,3.25,0,0,1,1,.62,2.49,2.49,0,0,1,.88,1.74,8.47,8.47,0,0,1-.21,1.85c-.14.62-.32,1.24-.51,1.84s-.4,1.17-.6,1.71a11,11,0,0,0-.39,1.2,2.93,2.93,0,0,0-.13,1,2,2,0,0,0,.66-.94l.89-1.69q3-5.35,5.81-7.09a3.91,3.91,0,0,1,2-.48,2.39,2.39,0,0,1,1.87.82,2.82,2.82,0,0,1,.74,1.79A5.69,5.69,0,0,1,424.3,37a4.51,4.51,0,0,1-.51,1.22A2.18,2.18,0,0,1,422,39.5a.84.84,0,0,1-.55-.21l-.5-.43a2.29,2.29,0,0,0-1.45-.67,2.82,2.82,0,0,0-1.7.92,16.81,16.81,0,0,0-2.06,2.35,43.62,43.62,0,0,0-5.9,10.7l-1,2.65a7.77,7.77,0,0,1-.68,1.41,1,1,0,0,1-.88.42,3.23,3.23,0,0,1-1.17-.22A4,4,0,0,1,405,55.86Z" transform="translate(-43.58 -17.88)" style="fill:#fff"/><path d="M427.08,50.47a3.23,3.23,0,0,1,2-.85,9,9,0,0,1,1.69.14,5.67,5.67,0,0,1,1.32.43,2.29,2.29,0,0,1,1.41,2.11,4.38,4.38,0,0,1-1.12,3,3.5,3.5,0,0,1-2.67,1.35h-.16a3.45,3.45,0,0,1-2.54-1.1,3.25,3.25,0,0,1-1-2.24A3.46,3.46,0,0,1,427.08,50.47Zm5.58-4a4.77,4.77,0,0,1-.67.8,1.11,1.11,0,0,1-.76.29c-.3,0-.57-.22-.83-.67a4.34,4.34,0,0,1-.37-2,6.75,6.75,0,0,1,.59-2.7,11.29,11.29,0,0,1,1.56-2.53,19.26,19.26,0,0,1,2.19-2.25l5-4.05q4.34-3.45,4.34-6.51a3.25,3.25,0,0,0-.84-2.4,2.82,2.82,0,0,0-2-.85,4.15,4.15,0,0,0-2,.43A4.2,4.2,0,0,0,437.55,25a4.14,4.14,0,0,0-1,2.67,3.84,3.84,0,0,0,.33,1.66,2.94,2.94,0,0,1,.33.94A1.41,1.41,0,0,1,437,31a2.92,2.92,0,0,1-.66.78,3.31,3.31,0,0,1-2,.82,2.6,2.6,0,0,1-1.47-.33,2.81,2.81,0,0,1-.78-.86,4.43,4.43,0,0,1-.58-2.35,7.34,7.34,0,0,1,.62-2.86,8.47,8.47,0,0,1,1.78-2.65,9.11,9.11,0,0,1,6.75-2.63,7.12,7.12,0,0,1,5.14,1.94,6.65,6.65,0,0,1,2,4.92q0,5.19-4.71,8.8l-2.86,2.14a31.25,31.25,0,0,0-5.81,5.26c-.35.47-.65.93-.92,1.36S432.88,46.11,432.66,46.45Z" transform="translate(-43.58 -17.88)" style="fill:#fff"/></g><g id="Layer_2" data-name="Layer 2"><path d="M237.53,31.64a13.84,13.84,0,1,0,13.84,13.84A13.84,13.84,0,0,0,237.53,31.64Zm0,16.93a3.09,3.09,0,1,1,3.09-3.09A3.09,3.09,0,0,1,237.53,48.57Z" transform="translate(-43.58 -17.88)" style="fill:#d6ad6b;stroke:#664c23;stroke-miterlimit:10;stroke-width:0.25px"/><path d="M250.86,41.8a14.75,14.75,0,0,0-2.31-4.68c-.07-.09-.13-.18-.2-.26-.19-.24-.4-.47-.61-.71s-.22-.25-.34-.37a12.64,12.64,0,0,0-1-.92s0,0-.07,0l0,0c-.24-.19-.5-.38-.75-.56a14.68,14.68,0,0,0-7.08-2.54l-.81,0h-.44l-.88,0-.43,0-.57.08c-.4.07-.78.14-1.15.23l-.38.1a14.78,14.78,0,0,0-6.61,4.11,13.78,13.78,0,0,0-3.47,7.93c.07.35.18.79.31,1.53a5.9,5.9,0,0,0,.71,2.07.93.93,0,0,0,.48.46.74.74,0,0,0,.77-.34,4.6,4.6,0,0,0,.4-.8,1.54,1.54,0,0,1,.78-.77.91.91,0,0,1,1,.25,1.42,1.42,0,0,1,.2.7c.14,1.15.35,2.44,1.31,3.08a.36.36,0,0,0,.18.08.38.38,0,0,0,.27-.16,3.67,3.67,0,0,0,.62-1c.14-.35.21-.72.38-1.06a1.23,1.23,0,0,1,.82-.71,1.27,1.27,0,0,1,1.22.74c.25.44.35.94.59,1.39a1.31,1.31,0,0,0,1.18.8,1.16,1.16,0,0,0,.91-.76,4.9,4.9,0,0,0,.32-1.4h0a3.09,3.09,0,1,1,2.48.06,11.5,11.5,0,0,0,.56,3,2.17,2.17,0,0,0,1.21,1.53,1.59,1.59,0,0,0,1.69-.72,4.29,4.29,0,0,0,.56-1.87,17.51,17.51,0,0,1,.86-4.85c0-.07.08-.16.16-.18a.25.25,0,0,1,.18.06,1.56,1.56,0,0,1,.56,1.29,5.92,5.92,0,0,0,.1,1.46,2,2,0,0,0,1.1,1.22.67.67,0,0,0,.31.07c.31,0,.43-.41.49-.72q.38-2.14.87-4.26c.08-.33.21-.7.53-.81a.69.69,0,0,1,.78.45,2,2,0,0,1,.06,1c-.13,1.14-.25,2.29-.37,3.44a4.35,4.35,0,0,0,0,1.44,1.45,1.45,0,0,0,.87,1.07c.48.16,1-.39,1.14-.57a1.74,1.74,0,0,0,.19-.26,13.71,13.71,0,0,0,.81-4.64A13.52,13.52,0,0,0,250.86,41.8Z" transform="translate(-43.58 -17.88)" style="fill:#e588e5;stroke:#991c99;stroke-miterlimit:10;stroke-width:0.25px"/></g><g id="Layer_3" data-name="Layer 3"><rect x="227.42" y="39.71" width="1.04" height="2.8" rx="0.52" transform="translate(-33.6 101.6) rotate(-30)" style="fill:#fff"/><rect x="231.68" y="33.97" width="1.04" height="2.8" rx="0.52" transform="translate(-42.07 -26.67) rotate(2.18)" style="fill:#fff"/><rect x="242.17" y="41.44" width="1.04" height="2.8" rx="0.52" transform="translate(-32.48 109.21) rotate(-30)" style="fill:#fff"/><rect x="235.55" y="38.96" width="1.04" height="2.8" rx="0.52" transform="translate(166.95 260.61) rotate(-93.58)" style="fill:#fff"/><rect x="240.03" y="34.88" width="1.04" height="2.8" rx="0.52" transform="translate(123.68 -213.56) rotate(63.89)" style="fill:#fff"/><rect x="244.97" y="38.2" width="1.04" height="2.8" rx="0.52" transform="translate(-30.49 110.18) rotate(-30)" style="fill:#fff"/><rect x="229.72" y="45.56" width="1.04" height="2.8" rx="0.52" transform="translate(-13.43 -94.13) rotate(20.1)" style="fill:#fff"/><rect x="236.69" y="32.09" width="1.04" height="2.8" rx="0.52" transform="matrix(0.59, -0.81, 0.81, 0.59, 27.41, 188.13)" style="fill:#fff"/><rect x="249.85" y="43.58" width="1.04" height="2.8" rx="0.52" transform="translate(30.35 -156.14) rotate(35.9)" style="fill:#fff"/></g></svg>