<?xml version="1.0" encoding="utf-8"?>
<!-- Generator: Adobe Illustrator 26.0.1, SVG Export Plug-In . SVG Version: 6.00 Build 0)  -->
<svg version="1.1" xmlns="http://www.w3.org/2000/svg" xmlns:xlink="http://www.w3.org/1999/xlink" x="0px" y="0px"
	 viewBox="0 0 30.74 41.62" style="enable-background:new 0 0 30.74 41.62;" xml:space="preserve">
<style type="text/css">
	.st0{display:none;}
	.st1{display:inline;fill:#DFE9EA;stroke:#F181D7;stroke-miterlimit:10;}
	.st2{display:inline;fill:#E02DE0;stroke:#FFFFFF;stroke-miterlimit:10;}
	.st3{fill:#D1A5D3;stroke:#B824BC;stroke-miterlimit:10;}
	.st4{display:none;fill:#E02DE0;stroke:#FFFFFF;stroke-miterlimit:10;}
	.st5{fill:#B824BC;stroke:#B824BC;stroke-miterlimit:10;}
</style>
<g id="FavoriteUnclicked" class="st0">
	<path class="st1" d="M5.06,0.5h19.4C26.97,0.5,29,2.53,29,5.04v21.38c0,2.51-2.03,4.54-4.54,4.54H5.06c-2.51,0-4.54-2.03-4.54-4.54
		V5.04C0.52,2.53,2.55,0.5,5.06,0.5z"/>
	<polygon class="st2" points="14.76,4.79 18.06,11.46 25.42,12.53 20.09,17.72 21.35,25.05 14.76,21.59 8.18,25.05 9.44,17.72 
		4.11,12.53 11.47,11.46 	"/>
</g>
<g id="FavoriteUnclicked_copy_2">
	<path class="st3" d="M5.06,0.5h19.4C26.97,0.5,29,2.53,29,5.04v21.38c0,2.51-2.03,4.54-4.54,4.54H5.06c-2.51,0-4.54-2.03-4.54-4.54
		V5.04C0.52,2.53,2.55,0.5,5.06,0.5z"/>
	<polygon class="st4" points="14.76,4.79 18.06,11.46 25.42,12.53 20.09,17.72 21.35,25.05 14.76,21.59 8.18,25.05 9.44,17.72 
		4.11,12.53 11.47,11.46 	"/>
	<path class="st5" d="M6,24.29l0.2,0.2c0.31,0.31,0.81,0.31,1.12,0l15.9-15.9c0.31-0.31,0.31-0.81,0-1.12l-0.2-0.2
		c-0.31-0.31-0.81-0.31-1.12,0L6,23.17C5.69,23.48,5.69,23.98,6,24.29z"/>
	<path class="st5" d="M23.32,24.19l0.2-0.2c0.31-0.31,0.31-0.81,0-1.12L7.62,6.97c-0.31-0.31-0.81-0.31-1.12,0l-0.2,0.2
		c-0.31,0.31-0.31,0.81,0,1.12l15.9,15.9C22.51,24.5,23.01,24.5,23.32,24.19z"/>
</g>
<g id="FavoriteUnclicked_copy" class="st0">
	<path class="st1" d="M5.06,0.5h19.4C26.97,0.5,29,2.53,29,5.04v21.38c0,2.51-2.03,4.54-4.54,4.54H5.06c-2.51,0-4.54-2.03-4.54-4.54
		V5.04C0.52,2.53,2.55,0.5,5.06,0.5z"/>
	<polygon class="st2" points="14.31,3.58 3.58,17.93 10.99,18.02 11.58,27.88 17.93,27.88 17.74,18.03 25.94,17.89 	"/>
</g>
<g id="Layer_2" class="st0">
</g>
</svg>
