<svg xmlns="http://www.w3.org/2000/svg" xmlns:xlink="http://www.w3.org/1999/xlink" viewBox="0 0 1157 1659"><defs><clipPath id="clip-path" transform="translate(172 2)"><rect x="365.67" y="1535.22" width="297.34" height="37.28" rx="13.67" style="fill:none"/></clipPath><clipPath id="clip-path-2" transform="translate(172 2)"><rect x="51.39" y="1535.22" width="297.34" height="37.28" rx="13.67" style="fill:none"/></clipPath><clipPath id="clip-path-3" transform="translate(172 2)"><rect x="11.33" y="12.91" width="673.25" height="621.35" rx="16.33" style="fill:none"/></clipPath><clipPath id="clip-path-4" transform="translate(172 2)"><rect x="11.33" y="652.9" width="673.25" height="893.5" rx="12.24" style="fill:none"/></clipPath><clipPath id="clip-path-5" transform="translate(172 2)"><path d="M110.46,903.47,100.81,968c-1.43,9.58-12.59,9.4-13.82-.22l-8.17-63.71a2.11,2.11,0,0,1,0-.25L72.43,699.22c-.36-11.72,7.23-21.46,16.71-21.46h7.4c10.12,0,18.26,10.3,18,22.81l-4.07,202.57C110.48,903.25,110.47,903.36,110.46,903.47Z" style="fill:none"/></clipPath><linearGradient id="linear-gradient" x1="268.84" y1="681.03" x2="268.84" y2="709.94" gradientUnits="userSpaceOnUse"><stop offset="0" stop-color="#68a5a3"/><stop offset="1" stop-color="#cce0f4"/></linearGradient><linearGradient id="linear-gradient-2" x1="274.27" y1="913.16" x2="274.16" y2="990.47" xlink:href="#linear-gradient"/><clipPath id="clip-path-6" transform="translate(172 2)"><path d="M118.16,402.66l-9.65,64.51c-1.43,9.58-12.58,9.4-13.82-.22l-8.17-63.71c0-.08,0-.16,0-.25L80.14,198.41C79.77,186.69,87.36,177,96.85,177h7.39c10.13,0,18.26,10.31,18,22.81l-4.06,202.57A1.84,1.84,0,0,1,118.16,402.66Z" style="fill:none"/></clipPath><linearGradient id="linear-gradient-3" x1="276.54" y1="180.22" x2="276.54" y2="209.13" xlink:href="#linear-gradient"/><linearGradient id="linear-gradient-4" x1="281.98" y1="412.35" x2="281.86" y2="489.67" xlink:href="#linear-gradient"/></defs><g id="Layer_8" data-name="Layer 8"><rect x="247.27" y="1581.33" width="49.3" height="8.7" style="fill:#0a0a0a"/><rect x="767.23" y="1583.2" width="49.3" height="8.7" style="fill:#0a0a0a"/></g><g id="Layer_4" data-name="Layer 4"><rect x="203.36" y="1540.94" width="640.89" height="43.49" rx="8.19" style="fill:#756f75"/></g><g id="Layer_5" data-name="Layer 5"><g id="Layer_4_copy" data-name="Layer 4 copy"><rect x="203.36" y="1540.94" width="640.89" height="43.49" rx="8.19" style="fill:none"/></g><g id="Layer_7" data-name="Layer 7"><g style="clip-path:url(#clip-path)"><rect x="537.67" y="1537.22" width="297.34" height="37.28" rx="13.67" style="fill:#2b2b2b;stroke:#0a0a0a;stroke-miterlimit:10"/><line x1="540.75" y1="1567.04" x2="830.39" y2="1567.04" style="fill:none;stroke:#7f7f7f;stroke-miterlimit:10"/><line x1="538.44" y1="1562.69" x2="835.78" y2="1562.69" style="fill:none;stroke:#7f7f7f;stroke-miterlimit:10"/><line x1="835.78" y1="1558.96" x2="536.9" y2="1558.96" style="fill:none;stroke:#7f7f7f;stroke-miterlimit:10"/><line x1="547.69" y1="1572.63" x2="829.62" y2="1572.63" style="fill:none;stroke:#7f7f7f;stroke-miterlimit:10"/><line x1="835.78" y1="1555.23" x2="524.58" y2="1555.23" style="fill:none;stroke:#7f7f7f;stroke-miterlimit:10"/><line x1="538.44" y1="1551.51" x2="857.35" y2="1551.51" style="fill:none;stroke:#7f7f7f;stroke-miterlimit:10"/><rect x="537.67" y="1537.22" width="297.34" height="37.28" rx="13.67" style="fill:none;stroke:#0a0a0a;stroke-miterlimit:10"/></g></g><g id="Layer_7_copy" data-name="Layer 7 copy"><g style="clip-path:url(#clip-path-2)"><rect x="223.39" y="1537.22" width="297.34" height="37.28" rx="13.67" style="fill:#2b2b2b;stroke:#0a0a0a;stroke-miterlimit:10"/><line x1="226.47" y1="1567.04" x2="516.11" y2="1567.04" style="fill:none;stroke:#7f7f7f;stroke-miterlimit:10"/><line x1="224.16" y1="1562.69" x2="521.5" y2="1562.69" style="fill:none;stroke:#7f7f7f;stroke-miterlimit:10"/><line x1="521.5" y1="1558.96" x2="222.62" y2="1558.96" style="fill:none;stroke:#7f7f7f;stroke-miterlimit:10"/><line x1="233.4" y1="1572.63" x2="515.33" y2="1572.63" style="fill:none;stroke:#7f7f7f;stroke-miterlimit:10"/><line x1="521.5" y1="1555.23" x2="210.29" y2="1555.23" style="fill:none;stroke:#7f7f7f;stroke-miterlimit:10"/><line x1="224.16" y1="1551.51" x2="543.07" y2="1551.51" style="fill:none;stroke:#7f7f7f;stroke-miterlimit:10"/><rect x="223.39" y="1537.22" width="297.34" height="37.28" rx="13.67" style="fill:none;stroke:#0a0a0a;stroke-miterlimit:10"/></g></g></g><g id="Layer_3" data-name="Layer 3"><rect x="200.78" y="636.76" width="639.9" height="23.85" style="fill:#756f75"/><path d="M668.17,635.26v22.85H29.28V635.26H668.17m1-1H28.28v24.85H669.17V634.26Z" transform="translate(172 2)"/></g><g id="Layer_1" data-name="Layer 1"><g style="clip-path:url(#clip-path-3)"><rect x="183.33" y="14.91" width="673.25" height="621.35" rx="16.33" style="fill:#d8eaea"/><rect y="14.91" width="207.98" height="961.85" style="fill:#accccb"/><rect x="841.17" width="315.83" height="813.97" style="fill:#accccb"/></g></g><g id="Layer_2" data-name="Layer 2"><g style="clip-path:url(#clip-path-4)"><rect x="183.33" y="654.9" width="673.25" height="893.5" rx="12.24" style="fill:#d8eaea"/><rect x="160.22" y="643.72" width="40.06" height="1015.28" style="fill:#accccb"/><rect x="841.17" y="643.72" width="60.08" height="900.96" style="fill:#accccb"/></g></g><g id="Layer_10" data-name="Layer 10"><g style="clip-path:url(#clip-path-5)"><path d="M110.46,903.47,100.81,968c-1.43,9.58-12.59,9.4-13.82-.22l-8.17-63.71a2.11,2.11,0,0,1,0-.25L72.43,699.22c-.36-11.72,7.23-21.46,16.71-21.46h7.4c10.12,0,18.26,10.3,18,22.81l-4.07,202.57C110.48,903.25,110.47,903.36,110.46,903.47Z" transform="translate(172 2)" style="fill:#c2f2f1;stroke:#68a5a3;stroke-miterlimit:10"/><rect x="240.34" y="673.54" width="57" height="24.85" style="fill:url(#linear-gradient)"/><rect x="244.96" y="904.68" width="58.54" height="75.8" style="fill:url(#linear-gradient-2)"/></g></g><g id="Layer_10_copy" data-name="Layer 10 copy"><g style="clip-path:url(#clip-path-6)"><path d="M118.16,402.66l-9.65,64.51c-1.43,9.58-12.58,9.4-13.82-.22l-8.17-63.71c0-.08,0-.16,0-.25L80.14,198.41C79.77,186.69,87.36,177,96.85,177h7.39c10.13,0,18.26,10.31,18,22.81l-4.06,202.57A1.84,1.84,0,0,1,118.16,402.66Z" transform="translate(172 2)" style="fill:#c2f2f1;stroke:#68a5a3;stroke-miterlimit:10"/><rect x="248.04" y="172.73" width="57" height="24.85" style="fill:url(#linear-gradient-3)"/><rect x="252.66" y="403.88" width="58.54" height="75.8" style="fill:url(#linear-gradient-4)"/></g></g></svg>