<svg xmlns="http://www.w3.org/2000/svg" xmlns:xlink="http://www.w3.org/1999/xlink" viewBox="0 0 751 1335"><defs><clipPath id="clip-path" transform="translate(104)"><rect x="245" y="1237" width="193" height="30" rx="13.67" style="fill:none"/></clipPath><clipPath id="clip-path-2" transform="translate(104)"><rect x="41" y="1237" width="193" height="30" rx="13.67" style="fill:none"/></clipPath><clipPath id="clip-path-3" transform="translate(104)"><rect x="15" y="12" width="437" height="500" rx="16.33" style="fill:none"/></clipPath><clipPath id="clip-path-4" transform="translate(104)"><rect x="15" y="527" width="437" height="719" rx="12.24" style="fill:none"/></clipPath><clipPath id="clip-path-5" transform="translate(104)"><path d="M79.34,728.63l-6.26,51.91c-.93,7.71-8.17,7.57-9-.17l-5.3-51.27a1.36,1.36,0,0,1,0-.2L54.66,564.27C54.42,554.84,59.35,547,65.51,547h4.8c6.57,0,11.85,8.29,11.69,18.36l-2.64,163A2.28,2.28,0,0,1,79.34,728.63Z" style="fill:none"/></clipPath><linearGradient id="linear-gradient" x1="174.5" y1="548.02" x2="174.5" y2="571.29" gradientUnits="userSpaceOnUse"><stop offset="0" stop-color="#68a5a3"/><stop offset="1" stop-color="#cce0f4"/></linearGradient><linearGradient id="linear-gradient-2" x1="178.04" y1="734.82" x2="177.94" y2="797.03" xlink:href="#linear-gradient"/><clipPath id="clip-path-6" transform="translate(104)"><path d="M84.34,325.63l-6.26,51.91c-.93,7.71-8.17,7.57-9-.17l-5.3-51.27a1.36,1.36,0,0,1,0-.2L59.66,161.27C59.42,151.84,64.35,144,70.51,144h4.8c6.57,0,11.85,8.29,11.69,18.36l-2.64,163A2.28,2.28,0,0,1,84.34,325.63Z" style="fill:none"/></clipPath><linearGradient id="linear-gradient-3" x1="179.5" y1="145.02" x2="179.5" y2="168.29" xlink:href="#linear-gradient"/><linearGradient id="linear-gradient-4" x1="183.04" y1="331.82" x2="182.94" y2="394.03" xlink:href="#linear-gradient"/></defs><g id="Layer_8" data-name="Layer 8"><rect x="160.5" y="1272.5" width="32" height="7" style="fill:#0a0a0a"/><rect x="498" y="1274" width="32" height="7" style="fill:#0a0a0a"/></g><g id="Layer_4" data-name="Layer 4"><rect x="132" y="1240" width="416" height="35" rx="8.19" style="fill:#756f75"/></g><g id="Layer_5" data-name="Layer 5"><g id="Layer_4_copy" data-name="Layer 4 copy"><rect x="132" y="1240" width="416" height="35" rx="8.19" style="fill:none"/></g><g id="Layer_7" data-name="Layer 7"><g style="clip-path:url(#clip-path)"><rect x="349" y="1237" width="193" height="30" rx="13.67" style="fill:#2b2b2b;stroke:#0a0a0a;stroke-miterlimit:10"/><line x1="351" y1="1261" x2="539" y2="1261" style="fill:none;stroke:#7f7f7f;stroke-miterlimit:10"/><line x1="349.5" y1="1257.5" x2="542.5" y2="1257.5" style="fill:none;stroke:#7f7f7f;stroke-miterlimit:10"/><line x1="542.5" y1="1254.5" x2="348.5" y2="1254.5" style="fill:none;stroke:#7f7f7f;stroke-miterlimit:10"/><line x1="355.5" y1="1265.5" x2="538.5" y2="1265.5" style="fill:none;stroke:#7f7f7f;stroke-miterlimit:10"/><line x1="542.5" y1="1251.5" x2="340.5" y2="1251.5" style="fill:none;stroke:#7f7f7f;stroke-miterlimit:10"/><line x1="349.5" y1="1248.5" x2="556.5" y2="1248.5" style="fill:none;stroke:#7f7f7f;stroke-miterlimit:10"/><rect x="349" y="1237" width="193" height="30" rx="13.67" style="fill:none;stroke:#0a0a0a;stroke-miterlimit:10"/></g></g><g id="Layer_7_copy" data-name="Layer 7 copy"><g style="clip-path:url(#clip-path-2)"><rect x="145" y="1237" width="193" height="30" rx="13.67" style="fill:#2b2b2b;stroke:#0a0a0a;stroke-miterlimit:10"/><line x1="147" y1="1261" x2="335" y2="1261" style="fill:none;stroke:#7f7f7f;stroke-miterlimit:10"/><line x1="145.5" y1="1257.5" x2="338.5" y2="1257.5" style="fill:none;stroke:#7f7f7f;stroke-miterlimit:10"/><line x1="338.5" y1="1254.5" x2="144.5" y2="1254.5" style="fill:none;stroke:#7f7f7f;stroke-miterlimit:10"/><line x1="151.5" y1="1265.5" x2="334.5" y2="1265.5" style="fill:none;stroke:#7f7f7f;stroke-miterlimit:10"/><line x1="338.5" y1="1251.5" x2="136.5" y2="1251.5" style="fill:none;stroke:#7f7f7f;stroke-miterlimit:10"/><line x1="145.5" y1="1248.5" x2="352.5" y2="1248.5" style="fill:none;stroke:#7f7f7f;stroke-miterlimit:10"/><rect x="145" y="1237" width="193" height="30" rx="13.67" style="fill:none;stroke:#0a0a0a;stroke-miterlimit:10"/></g></g></g><g id="Layer_3" data-name="Layer 3"><rect x="130.5" y="512.5" width="415" height="19" style="fill:#756f75"/><path d="M441,513v18H27V513H441m1-1H26v20H442V512Z" transform="translate(104)"/></g><g id="Layer_1" data-name="Layer 1"><g style="clip-path:url(#clip-path-3)"><rect x="119" y="12" width="437" height="500" rx="16.33" style="fill:#d8eaea"/><rect y="12" width="135" height="774" style="fill:#accccb"/><rect x="546" width="205" height="655" style="fill:#accccb"/></g></g><g id="Layer_2" data-name="Layer 2"><g style="clip-path:url(#clip-path-4)"><rect x="119" y="527" width="437" height="719" rx="12.24" style="fill:#d8eaea"/><rect x="104" y="518" width="26" height="817" style="fill:#accccb"/><rect x="546" y="518" width="39" height="725" style="fill:#accccb"/></g></g><g id="Layer_10" data-name="Layer 10"><g style="clip-path:url(#clip-path-5)"><path d="M79.34,728.63l-6.26,51.91c-.93,7.71-8.17,7.57-9-.17l-5.3-51.27a1.36,1.36,0,0,1,0-.2L54.66,564.27C54.42,554.84,59.35,547,65.51,547h4.8c6.57,0,11.85,8.29,11.69,18.36l-2.64,163A2.28,2.28,0,0,1,79.34,728.63Z" transform="translate(104)" style="fill:#c2f2f1;stroke:#68a5a3;stroke-miterlimit:10"/><rect x="156" y="542" width="37" height="20" style="fill:url(#linear-gradient)"/><rect x="159" y="728" width="38" height="61" style="fill:url(#linear-gradient-2)"/></g></g><g id="Layer_10_copy" data-name="Layer 10 copy"><g style="clip-path:url(#clip-path-6)"><path d="M84.34,325.63l-6.26,51.91c-.93,7.71-8.17,7.57-9-.17l-5.3-51.27a1.36,1.36,0,0,1,0-.2L59.66,161.27C59.42,151.84,64.35,144,70.51,144h4.8c6.57,0,11.85,8.29,11.69,18.36l-2.64,163A2.28,2.28,0,0,1,84.34,325.63Z" transform="translate(104)" style="fill:#c2f2f1;stroke:#68a5a3;stroke-miterlimit:10"/><rect x="161" y="139" width="37" height="20" style="fill:url(#linear-gradient-3)"/><rect x="164" y="325" width="38" height="61" style="fill:url(#linear-gradient-4)"/></g></g></svg>