<svg id="Layer_1" data-name="Layer 1" xmlns="http://www.w3.org/2000/svg" viewBox="0 0 29.85 29.85"><defs><style>.cls-1{fill:#81efd2;}.cls-2,.cls-3{fill:none;stroke:#000;stroke-miterlimit:10;}.cls-3{stroke-width:0.5px;}</style></defs><circle class="cls-1" cx="14.93" cy="14.93" r="14.93"/><path class="cls-2" d="M578.5,956.64" transform="translate(-568.93 -946.2)"/><polyline class="cls-2" points="10.89 11.57 8.29 22.75 10.32 25.12 15.19 25.89 19.79 25.29 21.79 22.61 18.67 11.66"/><ellipse class="cls-2" cx="14.7" cy="8.25" rx="5.96" ry="4.28"/><line class="cls-3" x1="12.59" y1="12.25" x2="10.46" y2="25.14"/><line class="cls-3" x1="15.19" y1="25.89" x2="14.97" y2="12.53"/><line class="cls-3" x1="16.82" y1="12.12" x2="19.64" y2="25.2"/><ellipse class="cls-2" cx="11.09" cy="5.75" rx="0.78" ry="0.4"/><ellipse class="cls-2" cx="18.29" cy="5.97" rx="0.74" ry="0.32"/><path class="cls-2" d="M582.76,954.44c0,.18.42.32.93.32s.92-.14.92-.32-.41-.31-.92-.31S582.76,954.27,582.76,954.44Z" transform="translate(-568.93 -946.2)"/></svg>