<svg id="Layer_4" data-name="Layer 4" xmlns="http://www.w3.org/2000/svg" viewBox="0 0 29.85 29.85"><defs><style>.cls-1{fill:#81efd2;}.cls-2,.cls-3{stroke:#020202;}.cls-2,.cls-3,.cls-4{stroke-miterlimit:10;}.cls-3{stroke-width:0.5px;}.cls-4{fill:#020202;stroke:#000;}</style></defs><circle class="cls-1" cx="14.93" cy="14.93" r="14.93"/><path class="cls-2" d="M586,1035.86" transform="translate(-569.68 -1024.12)"/><path class="cls-2" d="M580.82,1039.36a46,46,0,0,0-.56,6.2c0,3.87.45,3.78,1,3.78s1,.09,1-3.78a50.28,50.28,0,0,0-.53-6.2Z" transform="translate(-569.68 -1024.12)"/><line class="cls-2" x1="11.57" y1="15.23" x2="11.57" y2="11.15"/><line class="cls-2" x1="13.09" y1="11.15" x2="10.01" y2="11.15"/><line class="cls-3" x1="10.03" y1="5.87" x2="10.03" y2="11.64"/><line class="cls-3" x1="11.57" y1="5.87" x2="11.57" y2="11.43"/><line class="cls-3" x1="13.11" y1="5.87" x2="13.11" y2="11.64"/><path class="cls-4" d="M587,1039a47.29,47.29,0,0,0-.58,6.4c0,4,.46,3.9,1,3.9s1,.09,1-3.9a51.8,51.8,0,0,0-.55-6.4Z" transform="translate(-569.68 -1024.12)"/><line class="cls-4" x1="17.72" y1="14.91" x2="17.72" y2="12.38"/><ellipse class="cls-4" cx="17.72" cy="9.27" rx="1.63" ry="3.4"/></svg>